<svg xmlns="http://www.w3.org/2000/svg" xmlns:xlink="http://www.w3.org/1999/xlink" width="500" zoomAndPan="magnify" viewBox="0 0 375 374.999991" height="500" preserveAspectRatio="xMidYMid meet" version="1.0"><defs><g/><clipPath id="8fb36f63f3"><path d="M 127.847656 141.332031 L 210.726562 141.332031 L 210.726562 216.265625 L 127.847656 216.265625 Z M 127.847656 141.332031 " clip-rule="nonzero"/></clipPath><clipPath id="d1a0de1b4b"><path d="M 154.800781 141.332031 L 219.933594 141.332031 L 219.933594 195.863281 L 154.800781 195.863281 Z M 154.800781 141.332031 " clip-rule="nonzero"/></clipPath><clipPath id="37a0b522a5"><path d="M 164.261719 120.863281 L 247.144531 120.863281 L 247.144531 195.796875 L 164.261719 195.796875 Z M 164.261719 120.863281 " clip-rule="nonzero"/></clipPath><clipPath id="58e3a72c36"><path d="M 154.894531 141.265625 L 220.1875 141.265625 L 220.1875 195.796875 L 154.894531 195.796875 Z M 154.894531 141.265625 " clip-rule="nonzero"/></clipPath></defs><g clip-path="url(#8fb36f63f3)"><path fill="#1b183f" d="M 148.375 165.199219 L 148.382812 165.195312 C 140.027344 169.851562 134.371094 178.773438 134.371094 189.019531 C 134.371094 204.066406 146.570312 216.265625 161.621094 216.265625 L 210.679688 216.265625 L 204.15625 208.742188 C 200.796875 204.867188 195.925781 202.644531 190.796875 202.644531 L 161.621094 202.644531 C 154.097656 202.644531 147.996094 196.542969 147.996094 189.019531 C 147.996094 181.492188 154.097656 175.394531 161.621094 175.394531 L 175.246094 175.394531 L 163.433594 161.769531 L 151.003906 147.429688 C 147.644531 143.554688 142.773438 141.332031 137.644531 141.332031 L 127.6875 141.332031 L 148.375 165.199219 " fill-opacity="1" fill-rule="nonzero"/></g><g clip-path="url(#d1a0de1b4b)"><path fill="#1b183f" d="M 163.121094 182.207031 L 169.644531 189.730469 C 173.003906 193.605469 177.875 195.832031 183.003906 195.832031 L 220.097656 195.832031 L 178.136719 147.429688 C 174.777344 143.554688 169.90625 141.332031 164.777344 141.332031 L 154.816406 141.332031 L 190.253906 182.207031 L 163.121094 182.207031 " fill-opacity="1" fill-rule="nonzero"/></g><g clip-path="url(#37a0b522a5)"><path fill="#6664ff" d="M 226.613281 171.929688 L 226.609375 171.933594 C 234.964844 167.277344 240.617188 158.355469 240.617188 148.113281 C 240.617188 133.0625 228.417969 120.863281 213.367188 120.863281 L 164.308594 120.863281 L 170.832031 128.386719 C 174.191406 132.261719 179.066406 134.488281 184.191406 134.488281 L 213.367188 134.488281 C 220.894531 134.488281 226.992188 140.585938 226.992188 148.113281 C 226.992188 155.636719 220.894531 161.734375 213.367188 161.734375 L 199.742188 161.738281 L 211.554688 175.359375 L 223.984375 189.699219 C 227.34375 193.574219 232.21875 195.796875 237.34375 195.796875 L 247.304688 195.796875 L 226.613281 171.929688 " fill-opacity="1" fill-rule="nonzero"/></g><g clip-path="url(#58e3a72c36)"><path fill="#6664ff" d="M 211.871094 154.921875 L 205.34375 147.398438 C 201.988281 143.523438 197.113281 141.300781 191.988281 141.300781 L 154.894531 141.300781 L 196.851562 189.699219 C 200.210938 193.574219 205.085938 195.796875 210.210938 195.796875 L 220.171875 195.796875 L 184.738281 154.921875 L 211.871094 154.921875 " fill-opacity="1" fill-rule="nonzero"/></g><g fill="#000000" fill-opacity="1"><g transform="translate(111.767252, 237.214175)"><g><path d="M 5.359375 0 L 3.4375 -3.40625 L 2.609375 -3.40625 L 2.609375 0 L 0.859375 0 L 0.859375 -8.71875 L 4.140625 -8.71875 C 4.816406 -8.71875 5.390625 -8.597656 5.859375 -8.359375 C 6.335938 -8.128906 6.691406 -7.8125 6.921875 -7.40625 C 7.160156 -7 7.28125 -6.546875 7.28125 -6.046875 C 7.28125 -5.472656 7.113281 -4.953125 6.78125 -4.484375 C 6.445312 -4.023438 5.953125 -3.707031 5.296875 -3.53125 L 7.390625 0 Z M 2.609375 -4.71875 L 4.078125 -4.71875 C 4.546875 -4.71875 4.894531 -4.832031 5.125 -5.0625 C 5.363281 -5.289062 5.484375 -5.609375 5.484375 -6.015625 C 5.484375 -6.410156 5.363281 -6.71875 5.125 -6.9375 C 4.894531 -7.164062 4.546875 -7.28125 4.078125 -7.28125 L 2.609375 -7.28125 Z M 2.609375 -4.71875 "/></g></g></g><g fill="#000000" fill-opacity="1"><g transform="translate(122.225504, 237.214175)"><g><path d="M 4.90625 0.09375 C 4.09375 0.09375 3.34375 -0.0976562 2.65625 -0.484375 C 1.976562 -0.867188 1.4375 -1.398438 1.03125 -2.078125 C 0.632812 -2.753906 0.4375 -3.523438 0.4375 -4.390625 C 0.4375 -5.234375 0.632812 -5.992188 1.03125 -6.671875 C 1.4375 -7.359375 1.976562 -7.890625 2.65625 -8.265625 C 3.34375 -8.648438 4.09375 -8.84375 4.90625 -8.84375 C 5.738281 -8.84375 6.492188 -8.648438 7.171875 -8.265625 C 7.847656 -7.890625 8.382812 -7.359375 8.78125 -6.671875 C 9.175781 -5.992188 9.375 -5.234375 9.375 -4.390625 C 9.375 -3.523438 9.175781 -2.753906 8.78125 -2.078125 C 8.382812 -1.398438 7.84375 -0.867188 7.15625 -0.484375 C 6.476562 -0.0976562 5.726562 0.09375 4.90625 0.09375 Z M 4.90625 -1.46875 C 5.4375 -1.46875 5.898438 -1.585938 6.296875 -1.828125 C 6.703125 -2.066406 7.015625 -2.40625 7.234375 -2.84375 C 7.460938 -3.289062 7.578125 -3.804688 7.578125 -4.390625 C 7.578125 -4.972656 7.460938 -5.484375 7.234375 -5.921875 C 7.015625 -6.359375 6.703125 -6.691406 6.296875 -6.921875 C 5.898438 -7.160156 5.4375 -7.28125 4.90625 -7.28125 C 4.382812 -7.28125 3.921875 -7.160156 3.515625 -6.921875 C 3.109375 -6.691406 2.789062 -6.359375 2.5625 -5.921875 C 2.34375 -5.484375 2.234375 -4.972656 2.234375 -4.390625 C 2.234375 -3.804688 2.34375 -3.289062 2.5625 -2.84375 C 2.789062 -2.40625 3.109375 -2.066406 3.515625 -1.828125 C 3.921875 -1.585938 4.382812 -1.46875 4.90625 -1.46875 Z M 4.90625 -1.46875 "/></g></g></g><g fill="#000000" fill-opacity="1"><g transform="translate(134.482618, 237.214175)"><g><path d="M 8.328125 0 L 6.578125 0 L 2.609375 -5.984375 L 2.609375 0 L 0.859375 0 L 0.859375 -8.734375 L 2.609375 -8.734375 L 6.578125 -2.734375 L 6.578125 -8.734375 L 8.328125 -8.734375 Z M 8.328125 0 "/></g></g></g><g fill="#000000" fill-opacity="1"><g transform="translate(146.115124, 237.214175)"><g><path d="M 6.21875 -1.65625 L 2.734375 -1.65625 L 2.15625 0 L 0.328125 0 L 3.46875 -8.734375 L 5.5 -8.734375 L 8.640625 0 L 6.78125 0 Z M 5.734375 -3.0625 L 4.46875 -6.71875 L 3.21875 -3.0625 Z M 5.734375 -3.0625 "/></g></g></g><g fill="#000000" fill-opacity="1"><g transform="translate(157.51028, 237.214175)"><g><path d="M 2.609375 -1.390625 L 5.484375 -1.390625 L 5.484375 0 L 0.859375 0 L 0.859375 -8.71875 L 2.609375 -8.71875 Z M 2.609375 -1.390625 "/></g></g></g><g fill="#000000" fill-opacity="1"><g transform="translate(165.694957, 237.214175)"><g><path d="M 3.90625 -8.71875 C 4.820312 -8.71875 5.628906 -8.539062 6.328125 -8.1875 C 7.023438 -7.832031 7.5625 -7.320312 7.9375 -6.65625 C 8.320312 -5.988281 8.515625 -5.21875 8.515625 -4.34375 C 8.515625 -3.46875 8.320312 -2.703125 7.9375 -2.046875 C 7.5625 -1.398438 7.023438 -0.894531 6.328125 -0.53125 C 5.628906 -0.175781 4.820312 0 3.90625 0 L 0.859375 0 L 0.859375 -8.71875 Z M 3.84375 -1.484375 C 4.757812 -1.484375 5.46875 -1.734375 5.96875 -2.234375 C 6.46875 -2.734375 6.71875 -3.4375 6.71875 -4.34375 C 6.71875 -5.257812 6.46875 -5.972656 5.96875 -6.484375 C 5.46875 -6.992188 4.757812 -7.25 3.84375 -7.25 L 2.609375 -7.25 L 2.609375 -1.484375 Z M 3.84375 -1.484375 "/></g></g></g><g fill="#000000" fill-opacity="1"><g transform="translate(177.10261, 237.214175)"><g/></g></g><g fill="#000000" fill-opacity="1"><g transform="translate(182.526537, 237.214175)"><g><path d="M 5.359375 0 L 3.4375 -3.40625 L 2.609375 -3.40625 L 2.609375 0 L 0.859375 0 L 0.859375 -8.71875 L 4.140625 -8.71875 C 4.816406 -8.71875 5.390625 -8.597656 5.859375 -8.359375 C 6.335938 -8.128906 6.691406 -7.8125 6.921875 -7.40625 C 7.160156 -7 7.28125 -6.546875 7.28125 -6.046875 C 7.28125 -5.472656 7.113281 -4.953125 6.78125 -4.484375 C 6.445312 -4.023438 5.953125 -3.707031 5.296875 -3.53125 L 7.390625 0 Z M 2.609375 -4.71875 L 4.078125 -4.71875 C 4.546875 -4.71875 4.894531 -4.832031 5.125 -5.0625 C 5.363281 -5.289062 5.484375 -5.609375 5.484375 -6.015625 C 5.484375 -6.410156 5.363281 -6.71875 5.125 -6.9375 C 4.894531 -7.164062 4.546875 -7.28125 4.078125 -7.28125 L 2.609375 -7.28125 Z M 2.609375 -4.71875 "/></g></g></g><g fill="#000000" fill-opacity="1"><g transform="translate(192.984788, 237.214175)"><g><path d="M 2.609375 -8.71875 L 2.609375 0 L 0.859375 0 L 0.859375 -8.71875 Z M 2.609375 -8.71875 "/></g></g></g><g fill="#000000" fill-opacity="1"><g transform="translate(198.908398, 237.214175)"><g><path d="M 0.4375 -4.375 C 0.4375 -5.226562 0.628906 -5.992188 1.015625 -6.671875 C 1.398438 -7.359375 1.925781 -7.890625 2.59375 -8.265625 C 3.269531 -8.648438 4.023438 -8.84375 4.859375 -8.84375 C 5.835938 -8.84375 6.691406 -8.59375 7.421875 -8.09375 C 8.160156 -7.59375 8.675781 -6.898438 8.96875 -6.015625 L 6.953125 -6.015625 C 6.753906 -6.429688 6.472656 -6.742188 6.109375 -6.953125 C 5.742188 -7.160156 5.320312 -7.265625 4.84375 -7.265625 C 4.34375 -7.265625 3.894531 -7.144531 3.5 -6.90625 C 3.101562 -6.664062 2.789062 -6.328125 2.5625 -5.890625 C 2.34375 -5.460938 2.234375 -4.957031 2.234375 -4.375 C 2.234375 -3.800781 2.34375 -3.296875 2.5625 -2.859375 C 2.789062 -2.421875 3.101562 -2.082031 3.5 -1.84375 C 3.894531 -1.601562 4.34375 -1.484375 4.84375 -1.484375 C 5.320312 -1.484375 5.742188 -1.585938 6.109375 -1.796875 C 6.472656 -2.015625 6.753906 -2.332031 6.953125 -2.75 L 8.96875 -2.75 C 8.675781 -1.851562 8.164062 -1.15625 7.4375 -0.65625 C 6.707031 -0.164062 5.847656 0.078125 4.859375 0.078125 C 4.023438 0.078125 3.269531 -0.109375 2.59375 -0.484375 C 1.925781 -0.867188 1.398438 -1.398438 1.015625 -2.078125 C 0.628906 -2.753906 0.4375 -3.519531 0.4375 -4.375 Z M 0.4375 -4.375 "/></g></g></g><g fill="#000000" fill-opacity="1"><g transform="translate(210.953144, 237.214175)"><g><path d="M 8.09375 -8.71875 L 8.09375 0 L 6.34375 0 L 6.34375 -3.71875 L 2.609375 -3.71875 L 2.609375 0 L 0.859375 0 L 0.859375 -8.71875 L 2.609375 -8.71875 L 2.609375 -5.140625 L 6.34375 -5.140625 L 6.34375 -8.71875 Z M 8.09375 -8.71875 "/></g></g></g><g fill="#000000" fill-opacity="1"><g transform="translate(222.360797, 237.214175)"><g><path d="M 6.21875 -1.65625 L 2.734375 -1.65625 L 2.15625 0 L 0.328125 0 L 3.46875 -8.734375 L 5.5 -8.734375 L 8.640625 0 L 6.78125 0 Z M 5.734375 -3.0625 L 4.46875 -6.71875 L 3.21875 -3.0625 Z M 5.734375 -3.0625 "/></g></g></g><g fill="#000000" fill-opacity="1"><g transform="translate(233.755953, 237.214175)"><g><path d="M 5.359375 0 L 3.4375 -3.40625 L 2.609375 -3.40625 L 2.609375 0 L 0.859375 0 L 0.859375 -8.71875 L 4.140625 -8.71875 C 4.816406 -8.71875 5.390625 -8.597656 5.859375 -8.359375 C 6.335938 -8.128906 6.691406 -7.8125 6.921875 -7.40625 C 7.160156 -7 7.28125 -6.546875 7.28125 -6.046875 C 7.28125 -5.472656 7.113281 -4.953125 6.78125 -4.484375 C 6.445312 -4.023438 5.953125 -3.707031 5.296875 -3.53125 L 7.390625 0 Z M 2.609375 -4.71875 L 4.078125 -4.71875 C 4.546875 -4.71875 4.894531 -4.832031 5.125 -5.0625 C 5.363281 -5.289062 5.484375 -5.609375 5.484375 -6.015625 C 5.484375 -6.410156 5.363281 -6.71875 5.125 -6.9375 C 4.894531 -7.164062 4.546875 -7.28125 4.078125 -7.28125 L 2.609375 -7.28125 Z M 2.609375 -4.71875 "/></g></g></g><g fill="#000000" fill-opacity="1"><g transform="translate(244.214204, 237.214175)"><g><path d="M 3.90625 -8.71875 C 4.820312 -8.71875 5.628906 -8.539062 6.328125 -8.1875 C 7.023438 -7.832031 7.5625 -7.320312 7.9375 -6.65625 C 8.320312 -5.988281 8.515625 -5.21875 8.515625 -4.34375 C 8.515625 -3.46875 8.320312 -2.703125 7.9375 -2.046875 C 7.5625 -1.398438 7.023438 -0.894531 6.328125 -0.53125 C 5.628906 -0.175781 4.820312 0 3.90625 0 L 0.859375 0 L 0.859375 -8.71875 Z M 3.84375 -1.484375 C 4.757812 -1.484375 5.46875 -1.734375 5.96875 -2.234375 C 6.46875 -2.734375 6.71875 -3.4375 6.71875 -4.34375 C 6.71875 -5.257812 6.46875 -5.972656 5.96875 -6.484375 C 5.46875 -6.992188 4.757812 -7.25 3.84375 -7.25 L 2.609375 -7.25 L 2.609375 -1.484375 Z M 3.84375 -1.484375 "/></g></g></g><g fill="#000000" fill-opacity="1"><g transform="translate(255.621858, 237.214175)"><g><path d="M 3.875 0.09375 C 3.269531 0.09375 2.722656 -0.0078125 2.234375 -0.21875 C 1.742188 -0.425781 1.359375 -0.726562 1.078125 -1.125 C 0.796875 -1.519531 0.648438 -1.984375 0.640625 -2.515625 L 2.515625 -2.515625 C 2.535156 -2.148438 2.660156 -1.863281 2.890625 -1.65625 C 3.117188 -1.445312 3.4375 -1.34375 3.84375 -1.34375 C 4.25 -1.34375 4.566406 -1.441406 4.796875 -1.640625 C 5.035156 -1.835938 5.15625 -2.09375 5.15625 -2.40625 C 5.15625 -2.664062 5.070312 -2.878906 4.90625 -3.046875 C 4.75 -3.210938 4.550781 -3.34375 4.3125 -3.4375 C 4.082031 -3.539062 3.757812 -3.648438 3.34375 -3.765625 C 2.769531 -3.929688 2.304688 -4.09375 1.953125 -4.25 C 1.597656 -4.414062 1.289062 -4.660156 1.03125 -4.984375 C 0.78125 -5.316406 0.65625 -5.757812 0.65625 -6.3125 C 0.65625 -6.832031 0.785156 -7.28125 1.046875 -7.65625 C 1.304688 -8.039062 1.671875 -8.332031 2.140625 -8.53125 C 2.609375 -8.738281 3.140625 -8.84375 3.734375 -8.84375 C 4.640625 -8.84375 5.375 -8.625 5.9375 -8.1875 C 6.5 -7.75 6.804688 -7.140625 6.859375 -6.359375 L 4.9375 -6.359375 C 4.914062 -6.660156 4.785156 -6.910156 4.546875 -7.109375 C 4.316406 -7.304688 4.003906 -7.40625 3.609375 -7.40625 C 3.265625 -7.40625 2.988281 -7.316406 2.78125 -7.140625 C 2.582031 -6.960938 2.484375 -6.707031 2.484375 -6.375 C 2.484375 -6.144531 2.5625 -5.953125 2.71875 -5.796875 C 2.875 -5.640625 3.066406 -5.515625 3.296875 -5.421875 C 3.523438 -5.328125 3.847656 -5.21875 4.265625 -5.09375 C 4.828125 -4.925781 5.285156 -4.757812 5.640625 -4.59375 C 6.003906 -4.425781 6.316406 -4.175781 6.578125 -3.84375 C 6.835938 -3.507812 6.96875 -3.070312 6.96875 -2.53125 C 6.96875 -2.0625 6.84375 -1.625 6.59375 -1.21875 C 6.351562 -0.820312 6 -0.503906 5.53125 -0.265625 C 5.070312 -0.0234375 4.519531 0.09375 3.875 0.09375 Z M 3.875 0.09375 "/></g></g></g><g fill="#000000" fill-opacity="1"><g transform="translate(170.377742, 251.389642)"><g><path d="M 1.953125 -6.59375 L 1.953125 -2.515625 C 1.953125 -2.066406 2.066406 -1.722656 2.296875 -1.484375 C 2.535156 -1.242188 2.863281 -1.125 3.28125 -1.125 C 3.707031 -1.125 4.035156 -1.242188 4.265625 -1.484375 C 4.503906 -1.722656 4.625 -2.066406 4.625 -2.515625 L 4.625 -6.59375 L 5.953125 -6.59375 L 5.953125 -2.515625 C 5.953125 -1.960938 5.832031 -1.488281 5.59375 -1.09375 C 5.351562 -0.707031 5.03125 -0.414062 4.625 -0.21875 C 4.21875 -0.03125 3.765625 0.0625 3.265625 0.0625 C 2.773438 0.0625 2.328125 -0.03125 1.921875 -0.21875 C 1.523438 -0.414062 1.207031 -0.707031 0.96875 -1.09375 C 0.738281 -1.488281 0.625 -1.960938 0.625 -2.515625 L 0.625 -6.59375 Z M 1.953125 -6.59375 "/></g></g></g><g fill="#000000" fill-opacity="1"><g transform="translate(178.802437, 251.389642)"><g><path d="M 1.96875 -6.59375 L 1.96875 0 L 0.65625 0 L 0.65625 -6.59375 Z M 1.96875 -6.59375 "/></g></g></g><g fill="#000000" fill-opacity="1"><g transform="translate(183.274493, 251.389642)"><g><path d="M 4.1875 -8.9375 L 1.640625 1.703125 L 0.34375 1.703125 L 2.890625 -8.9375 Z M 4.1875 -8.9375 "/></g></g></g><g fill="#000000" fill-opacity="1"><g transform="translate(189.708717, 251.389642)"><g><path d="M 1.953125 -6.59375 L 1.953125 -2.515625 C 1.953125 -2.066406 2.066406 -1.722656 2.296875 -1.484375 C 2.535156 -1.242188 2.863281 -1.125 3.28125 -1.125 C 3.707031 -1.125 4.035156 -1.242188 4.265625 -1.484375 C 4.503906 -1.722656 4.625 -2.066406 4.625 -2.515625 L 4.625 -6.59375 L 5.953125 -6.59375 L 5.953125 -2.515625 C 5.953125 -1.960938 5.832031 -1.488281 5.59375 -1.09375 C 5.351562 -0.707031 5.03125 -0.414062 4.625 -0.21875 C 4.21875 -0.03125 3.765625 0.0625 3.265625 0.0625 C 2.773438 0.0625 2.328125 -0.03125 1.921875 -0.21875 C 1.523438 -0.414062 1.207031 -0.707031 0.96875 -1.09375 C 0.738281 -1.488281 0.625 -1.960938 0.625 -2.515625 L 0.625 -6.59375 Z M 1.953125 -6.59375 "/></g></g></g><g fill="#000000" fill-opacity="1"><g transform="translate(198.133413, 251.389642)"><g><path d="M 4.59375 0 L 3.171875 -2.21875 L 1.875 0 L 0.390625 0 L 2.46875 -3.328125 L 0.359375 -6.59375 L 1.875 -6.59375 L 3.296875 -4.375 L 4.59375 -6.59375 L 6.078125 -6.59375 L 4.015625 -3.28125 L 6.109375 0 Z M 4.59375 0 "/></g></g></g><path stroke-linecap="butt" transform="matrix(0.75, 0, 0, 0.75, 118.379601, 247.662346)" fill="none" stroke-linejoin="miter" d="M 6.499074 1.002289 L 51.389702 1.002289 " stroke="#000000" stroke-width="2" stroke-opacity="1" stroke-miterlimit="4"/><path stroke-linecap="round" transform="matrix(0.75, 0, 0, 0.75, 118.379601, 247.662346)" fill-opacity="1" fill="#000000" fill-rule="nonzero" stroke-linejoin="round" d="M 0.999074 1.002289 L 3.999074 -1.997712 L 6.999074 1.002289 L 3.999074 4.002289 Z M 0.999074 1.002289 " stroke="#000000" stroke-width="2" stroke-opacity="1" stroke-miterlimit="4"/><path stroke-linecap="butt" transform="matrix(-0.75, 0, 0, -0.75, 256.620045, 249.162346)" fill="none" stroke-linejoin="miter" d="M 6.498602 0.997711 L 51.38923 0.997711 " stroke="#000000" stroke-width="2" stroke-opacity="1" stroke-miterlimit="4"/><path stroke-linecap="round" transform="matrix(-0.75, 0, 0, -0.75, 256.620045, 249.162346)" fill-opacity="1" fill="#000000" fill-rule="nonzero" stroke-linejoin="round" d="M 0.998602 0.997711 L 3.998602 -2.002289 L 6.998602 0.997711 L 3.998602 3.997712 Z M 0.998602 0.997711 " stroke="#000000" stroke-width="2" stroke-opacity="1" stroke-miterlimit="4"/></svg>