<svg xmlns="http://www.w3.org/2000/svg" xmlns:xlink="http://www.w3.org/1999/xlink" width="500" zoomAndPan="magnify" viewBox="0 0 375 374.999991" height="500" preserveAspectRatio="xMidYMid meet" version="1.0"><defs><clipPath id="42cacda9a4"><path d="M 40.527344 120.511719 L 244.710938 120.511719 L 244.710938 304.894531 L 40.527344 304.894531 Z M 40.527344 120.511719 " clip-rule="nonzero"/></clipPath><clipPath id="0c74800c8a"><path d="M 107 120.511719 L 267.460938 120.511719 L 267.460938 254.71875 L 107 254.71875 Z M 107 120.511719 " clip-rule="nonzero"/></clipPath><clipPath id="175615afd4"><path d="M 130.28125 70.035156 L 334.464844 70.035156 L 334.464844 254.484375 L 130.28125 254.484375 Z M 130.28125 70.035156 " clip-rule="nonzero"/></clipPath><clipPath id="ddfd37198a"><path d="M 107.214844 120.28125 L 268 120.28125 L 268 254.484375 L 107.214844 254.484375 Z M 107.214844 120.28125 " clip-rule="nonzero"/></clipPath></defs><g clip-path="url(#42cacda9a4)"><path fill="#ffffff" d="M 91.171875 179.207031 L 91.1875 179.203125 C 70.609375 190.667969 56.6875 212.636719 56.6875 237.863281 C 56.6875 274.921875 86.726562 304.964844 123.785156 304.964844 L 244.59375 304.964844 L 228.527344 286.429688 C 220.257812 276.894531 208.257812 271.414062 195.632812 271.414062 L 123.785156 271.414062 C 105.257812 271.414062 90.238281 256.394531 90.238281 237.863281 C 90.238281 219.332031 105.257812 204.3125 123.785156 204.3125 L 157.335938 204.3125 L 128.25 170.761719 L 97.644531 135.453125 C 89.375 125.914062 77.371094 120.4375 64.746094 120.4375 L 40.222656 120.4375 L 91.171875 179.207031 " fill-opacity="1" fill-rule="nonzero"/></g><g clip-path="url(#0c74800c8a)"><path fill="#ffffff" d="M 127.476562 221.085938 L 143.542969 239.621094 C 151.8125 249.160156 163.816406 254.636719 176.4375 254.636719 L 267.777344 254.636719 L 164.457031 135.453125 C 156.1875 125.914062 144.183594 120.4375 131.5625 120.4375 L 107.03125 120.4375 L 194.289062 221.085938 L 127.476562 221.085938 " fill-opacity="1" fill-rule="nonzero"/></g><g clip-path="url(#175615afd4)"><path fill="#6664ff" d="M 283.824219 195.789062 L 283.808594 195.792969 C 304.386719 184.332031 318.308594 162.363281 318.308594 137.136719 C 318.308594 100.078125 288.265625 70.035156 251.207031 70.035156 L 130.402344 70.035156 L 146.464844 88.566406 C 154.734375 98.105469 166.738281 103.585938 179.363281 103.585938 L 251.207031 103.585938 C 269.738281 103.585938 284.757812 118.605469 284.757812 137.136719 C 284.757812 155.664062 269.738281 170.6875 251.207031 170.6875 L 217.65625 170.6875 L 246.742188 204.238281 L 277.351562 239.542969 C 285.621094 249.082031 297.621094 254.5625 310.246094 254.5625 L 334.773438 254.5625 L 283.824219 195.789062 " fill-opacity="1" fill-rule="nonzero"/></g><g clip-path="url(#ddfd37198a)"><path fill="#6664ff" d="M 247.515625 153.910156 L 231.449219 135.378906 C 223.183594 125.839844 211.179688 120.359375 198.554688 120.359375 L 107.214844 120.359375 L 210.539062 239.542969 C 218.808594 249.082031 230.808594 254.5625 243.433594 254.5625 L 267.960938 254.5625 L 180.703125 153.910156 L 247.515625 153.910156 " fill-opacity="1" fill-rule="nonzero"/></g></svg>