<svg xmlns="http://www.w3.org/2000/svg" xmlns:xlink="http://www.w3.org/1999/xlink" width="500" zoomAndPan="magnify" viewBox="0 0 375 374.999991" height="500" preserveAspectRatio="xMidYMid meet" version="1.0"><defs><clipPath id="ec026f59ca"><path d="M 30.882812 112.738281 L 248.335938 112.738281 L 248.335938 308.960938 L 30.882812 308.960938 Z M 30.882812 112.738281 " clip-rule="nonzero"/></clipPath><clipPath id="512726086d"><path d="M 101.886719 112.738281 L 272.867188 112.738281 L 272.867188 255.53125 L 101.886719 255.53125 Z M 101.886719 112.738281 " clip-rule="nonzero"/></clipPath><clipPath id="accdc1ab8e"><path d="M 126.65625 59.144531 L 344.109375 59.144531 L 344.109375 255.367188 L 126.65625 255.367188 Z M 126.65625 59.144531 " clip-rule="nonzero"/></clipPath><clipPath id="ea19d419b2"><path d="M 102.125 112.574219 L 273.105469 112.574219 L 273.105469 255.367188 L 102.125 255.367188 Z M 102.125 112.574219 " clip-rule="nonzero"/></clipPath></defs><g clip-path="url(#ec026f59ca)"><path fill="#5e17eb" d="M 85.0625 175.238281 L 85.082031 175.230469 C 63.199219 187.421875 48.390625 210.785156 48.390625 237.609375 C 48.390625 277.015625 80.339844 308.964844 119.746094 308.964844 L 248.210938 308.964844 L 231.128906 289.253906 C 222.332031 279.113281 209.570312 273.285156 196.144531 273.285156 L 119.746094 273.285156 C 100.042969 273.285156 84.070312 257.3125 84.070312 237.609375 C 84.070312 217.902344 100.042969 201.933594 119.746094 201.933594 L 155.425781 201.929688 L 124.496094 166.253906 L 91.945312 128.707031 C 83.152344 118.566406 70.390625 112.738281 56.964844 112.738281 L 30.882812 112.738281 L 85.0625 175.238281 " fill-opacity="1" fill-rule="nonzero"/></g><g clip-path="url(#512726086d)"><path fill="#5e17eb" d="M 123.671875 219.769531 L 140.753906 239.476562 C 149.550781 249.621094 162.3125 255.445312 175.738281 255.445312 L 272.867188 255.445312 L 162.992188 128.707031 C 154.199219 118.566406 141.4375 112.738281 128.011719 112.738281 L 101.929688 112.738281 L 194.71875 219.769531 L 123.671875 219.769531 " fill-opacity="1" fill-rule="nonzero"/></g><g clip-path="url(#accdc1ab8e)"><path fill="#6664ff" d="M 289.929688 192.867188 L 289.910156 192.875 C 311.792969 180.683594 326.601562 157.320312 326.601562 130.496094 C 326.601562 91.089844 294.652344 59.140625 255.246094 59.140625 L 126.78125 59.140625 L 143.863281 78.847656 C 152.65625 88.992188 165.421875 94.820312 178.847656 94.820312 L 255.246094 94.820312 C 274.949219 94.820312 290.921875 110.792969 290.921875 130.496094 C 290.921875 150.199219 274.949219 166.171875 255.246094 166.171875 L 219.566406 166.175781 L 250.496094 201.851562 L 283.046875 239.398438 C 291.839844 249.539062 304.601562 255.367188 318.027344 255.367188 L 344.109375 255.367188 L 289.929688 192.867188 " fill-opacity="1" fill-rule="nonzero"/></g><g clip-path="url(#ea19d419b2)"><path fill="#6664ff" d="M 251.320312 148.335938 L 234.238281 128.628906 C 225.441406 118.484375 212.679688 112.65625 199.253906 112.65625 L 102.125 112.65625 L 212 239.398438 C 220.792969 249.539062 233.554688 255.367188 246.976562 255.367188 L 273.0625 255.367188 L 180.273438 148.335938 L 251.320312 148.335938 " fill-opacity="1" fill-rule="nonzero"/></g></svg>