<svg xmlns="http://www.w3.org/2000/svg" xmlns:xlink="http://www.w3.org/1999/xlink" width="500" zoomAndPan="magnify" viewBox="0 0 375 374.999991" height="500" preserveAspectRatio="xMidYMid meet" version="1.0"><defs><g/><clipPath id="79907bb3b9"><path d="M 100.890625 71 L 180 71 L 180 141 L 100.890625 141 Z M 100.890625 71 " clip-rule="nonzero"/></clipPath></defs><rect x="-37.5" width="450" fill="#ffffff" y="-37.499999" height="449.999989" fill-opacity="1"/><rect x="-37.5" width="450" fill="#000000" y="-37.499999" height="449.999989" fill-opacity="1"/><path fill="#ffffff" d="M 237.101562 195.980469 C 236.011719 195.210938 234.714844 194.542969 233.292969 193.960938 C 236.128906 190.976562 238.570312 187.558594 241.324219 184.457031 C 250.59375 184.9375 256.082031 188.910156 254.25 196.988281 C 252.074219 198.957031 250.101562 201.140625 247.953125 203.144531 C 245.972656 204.996094 243.792969 206.53125 241.617188 208.097656 C 243 203.867188 242.125 199.523438 237.101562 195.980469 " fill-opacity="1" fill-rule="nonzero"/><path fill="#ffffff" d="M 238.300781 87.480469 C 236.960938 85.960938 235.375 84.738281 233.808594 83.464844 C 232.980469 82.789062 232.207031 82.042969 231.308594 81.460938 C 230.53125 80.957031 229.753906 80.480469 229.046875 79.875 C 228.9375 79.785156 228.859375 79.6875 228.808594 79.582031 C 227.78125 78.96875 226.765625 78.371094 225.882812 77.839844 C 212.019531 70.675781 190.644531 73.054688 170.9375 78.40625 C 171.527344 79.597656 172.074219 80.804688 172.492188 82.074219 C 172.78125 82.960938 172.972656 83.859375 173.066406 84.761719 C 196.734375 80.542969 222.335938 79.382812 239.097656 88.355469 C 238.828125 88.066406 238.5625 87.777344 238.300781 87.480469 " fill-opacity="1" fill-rule="nonzero"/><path fill="#ffffff" d="M 265.519531 129.488281 C 265.109375 127.214844 264.695312 124.941406 264.128906 122.699219 C 263.636719 120.730469 262.761719 118.933594 262.113281 117.027344 C 261.820312 116.855469 261.636719 116.542969 261.742188 116.144531 C 261.417969 115.429688 261.066406 114.664062 260.679688 113.820312 C 253.027344 98.859375 229.773438 96.335938 203.167969 100.46875 C 202.128906 105.445312 200.433594 110.230469 198.761719 115.023438 C 243.28125 111.210938 260 122.082031 266.105469 132.308594 C 265.890625 131.371094 265.691406 130.433594 265.519531 129.488281 " fill-opacity="1" fill-rule="nonzero"/><path fill="#ffffff" d="M 266.753906 173.105469 C 267.066406 171.96875 267.570312 170.804688 267.730469 169.640625 C 267.84375 168.828125 267.878906 168.101562 268.339844 167.445312 C 268.601562 166.015625 268.847656 164.605469 269.0625 163.378906 C 271.007812 144.46875 254.324219 137.902344 230.878906 138.890625 C 230.597656 139.683594 230.292969 140.46875 229.960938 141.246094 C 227.582031 146.832031 224.164062 151.835938 220.871094 156.914062 C 252.378906 156.21875 266.511719 165.015625 263.027344 183.289062 C 263.421875 182.488281 263.808594 181.683594 264.160156 180.855469 C 264.203125 180.761719 264.253906 180.679688 264.308594 180.609375 C 265.003906 178.070312 266.054688 175.648438 266.753906 173.105469 " fill-opacity="1" fill-rule="nonzero"/><path fill="#ffffff" d="M 108.929688 111.101562 C 129.492188 104.296875 145.121094 79.613281 136.367188 82.457031 C 114.023438 89.71875 108.929688 111.101562 108.746094 111.15625 C 108.800781 111.140625 108.875 111.117188 108.929688 111.101562 " fill-opacity="1" fill-rule="nonzero"/><g clip-path="url(#79907bb3b9)"><path fill="#ffffff" d="M 159.765625 80.617188 C 159.046875 76.710938 154.351562 76.296875 147.515625 79.53125 C 150.640625 76.433594 156.019531 74.152344 160.007812 73.050781 C 174.707031 68.996094 185.335938 74.234375 176.882812 89.769531 C 163.5 114.359375 122.332031 137.75 100.910156 140.496094 C 100.910156 140.496094 160.125 93.789062 159.765625 80.617188 " fill-opacity="1" fill-rule="nonzero"/></g><path fill="#ffffff" d="M 106.097656 183.5625 C 129.28125 181.941406 215.3125 131.5625 219.640625 89.851562 C 221.398438 72.921875 205.039062 69.515625 199.628906 68.589844 C 197.714844 68.265625 195.152344 67.890625 193.21875 67.703125 C 173.191406 65.722656 158.46875 71.4375 158.46875 71.4375 C 173.753906 67.972656 206.734375 63.039062 194.316406 91.863281 C 179.09375 123.417969 106.097656 183.5625 106.097656 183.5625 " fill-opacity="1" fill-rule="nonzero"/><path fill="#ffffff" d="M 132.585938 218.9375 C 156.191406 220.851562 271.300781 145.882812 251.257812 100.714844 C 250.695312 99.441406 249.75 97.308594 246.902344 94.132812 C 246.902344 94.132812 244.335938 91.492188 243.441406 90.648438 C 237.183594 84.769531 236.734375 84.769531 232.625 81.957031 C 230.613281 80.703125 227.949219 79 225.882812 77.839844 C 234.460938 83.242188 240.9375 91.3125 230.34375 113.570312 C 208.375 155.300781 132.585938 218.9375 132.585938 218.9375 " fill-opacity="1" fill-rule="nonzero"/><path fill="#ffffff" d="M 257.230469 144.394531 C 261.511719 135.339844 265.660156 124.757812 260.679688 113.820312 C 264.367188 121.652344 265.144531 123.417969 267.210938 131.175781 C 267.976562 134.046875 268.582031 137.96875 269.089844 140.890625 C 274.078125 179.839844 197.964844 230.78125 171.578125 235.921875 C 171.578125 235.921875 241.613281 173.839844 257.230469 144.394531 " fill-opacity="1" fill-rule="nonzero"/><path fill="#ffffff" d="M 230.863281 224.878906 C 244.5 215.558594 251.59375 207.277344 259.144531 193.292969 C 260.332031 191.09375 261.792969 188.097656 262.816406 185.820312 C 265.644531 178.578125 265.9375 177.820312 267.324219 172.46875 C 267.890625 169.75 268.644531 166.121094 269.0625 163.378906 C 268.019531 168.5 267.667969 170.226562 264.246094 177.050781 C 245.78125 209.453125 216.742188 231.410156 200.78125 235.519531 C 200.78125 235.519531 211.660156 238.003906 230.863281 224.878906 " fill-opacity="1" fill-rule="nonzero"/><g fill="#ffffff" fill-opacity="1"><g transform="translate(98.449217, 282.763575)"><g><path d="M 26.875 2.40625 C 26.15625 3.300781 25.273438 3.984375 24.234375 4.453125 C 23.203125 4.921875 22.066406 5.15625 20.828125 5.15625 C 19.171875 5.15625 17.664062 4.796875 16.3125 4.078125 C 14.96875 3.367188 13.4375 2.101562 11.71875 0.28125 C 9.6875 0.03125 7.875 -0.613281 6.28125 -1.65625 C 4.695312 -2.707031 3.460938 -4.054688 2.578125 -5.703125 C 1.691406 -7.359375 1.25 -9.191406 1.25 -11.203125 C 1.25 -13.398438 1.773438 -15.378906 2.828125 -17.140625 C 3.890625 -18.898438 5.351562 -20.28125 7.21875 -21.28125 C 9.082031 -22.28125 11.175781 -22.78125 13.5 -22.78125 C 15.820312 -22.78125 17.910156 -22.28125 19.765625 -21.28125 C 21.628906 -20.28125 23.09375 -18.898438 24.15625 -17.140625 C 25.226562 -15.378906 25.765625 -13.398438 25.765625 -11.203125 C 25.765625 -8.597656 25.03125 -6.3125 23.5625 -4.34375 C 22.101562 -2.382812 20.171875 -1.019531 17.765625 -0.25 C 18.296875 0.300781 18.8125 0.695312 19.3125 0.9375 C 19.8125 1.1875 20.347656 1.3125 20.921875 1.3125 C 22.316406 1.3125 23.535156 0.753906 24.578125 -0.359375 Z M 6.5 -11.203125 C 6.5 -9.816406 6.800781 -8.578125 7.40625 -7.484375 C 8.007812 -6.398438 8.84375 -5.550781 9.90625 -4.9375 C 10.976562 -4.332031 12.175781 -4.03125 13.5 -4.03125 C 14.820312 -4.03125 16.015625 -4.332031 17.078125 -4.9375 C 18.148438 -5.550781 18.988281 -6.398438 19.59375 -7.484375 C 20.207031 -8.578125 20.515625 -9.816406 20.515625 -11.203125 C 20.515625 -12.585938 20.207031 -13.820312 19.59375 -14.90625 C 18.988281 -16 18.148438 -16.847656 17.078125 -17.453125 C 16.015625 -18.066406 14.820312 -18.375 13.5 -18.375 C 12.175781 -18.375 10.976562 -18.066406 9.90625 -17.453125 C 8.84375 -16.847656 8.007812 -16 7.40625 -14.90625 C 6.800781 -13.820312 6.5 -12.585938 6.5 -11.203125 Z M 6.5 -11.203125 "/></g></g></g><g fill="#ffffff" fill-opacity="1"><g transform="translate(125.450577, 282.763575)"><g><path d="M 12.609375 0.390625 C 9.410156 0.390625 6.921875 -0.492188 5.140625 -2.265625 C 3.359375 -4.035156 2.46875 -6.566406 2.46875 -9.859375 L 2.46875 -22.40625 L 7.640625 -22.40625 L 7.640625 -10.046875 C 7.640625 -6.035156 9.304688 -4.03125 12.640625 -4.03125 C 14.265625 -4.03125 15.5 -4.515625 16.34375 -5.484375 C 17.195312 -6.453125 17.625 -7.972656 17.625 -10.046875 L 17.625 -22.40625 L 22.75 -22.40625 L 22.75 -9.859375 C 22.75 -6.566406 21.859375 -4.035156 20.078125 -2.265625 C 18.296875 -0.492188 15.804688 0.390625 12.609375 0.390625 Z M 12.609375 0.390625 "/></g></g></g><g fill="#ffffff" fill-opacity="1"><g transform="translate(150.660376, 282.763575)"><g><path d="M 17.40625 -4.796875 L 7.015625 -4.796875 L 5.03125 0 L -0.28125 0 L 9.703125 -22.40625 L 14.8125 -22.40625 L 24.828125 0 L 19.390625 0 Z M 15.78125 -8.734375 L 12.21875 -17.3125 L 8.671875 -8.734375 Z M 15.78125 -8.734375 "/></g></g></g><g fill="#ffffff" fill-opacity="1"><g transform="translate(175.166352, 282.763575)"><g><path d="M 23.203125 -22.40625 L 23.203125 0 L 18.9375 0 L 7.78125 -13.59375 L 7.78125 0 L 2.65625 0 L 2.65625 -22.40625 L 6.9375 -22.40625 L 18.078125 -8.796875 L 18.078125 -22.40625 Z M 23.203125 -22.40625 "/></g></g></g><g fill="#ffffff" fill-opacity="1"><g transform="translate(201.016002, 282.763575)"><g><path d="M 7.296875 -18.171875 L 0.125 -18.171875 L 0.125 -22.40625 L 19.640625 -22.40625 L 19.640625 -18.171875 L 12.484375 -18.171875 L 12.484375 0 L 7.296875 0 Z M 7.296875 -18.171875 "/></g></g></g><g fill="#ffffff" fill-opacity="1"><g transform="translate(220.787146, 282.763575)"><g><path d="M 12.609375 0.390625 C 9.410156 0.390625 6.921875 -0.492188 5.140625 -2.265625 C 3.359375 -4.035156 2.46875 -6.566406 2.46875 -9.859375 L 2.46875 -22.40625 L 7.640625 -22.40625 L 7.640625 -10.046875 C 7.640625 -6.035156 9.304688 -4.03125 12.640625 -4.03125 C 14.265625 -4.03125 15.5 -4.515625 16.34375 -5.484375 C 17.195312 -6.453125 17.625 -7.972656 17.625 -10.046875 L 17.625 -22.40625 L 22.75 -22.40625 L 22.75 -9.859375 C 22.75 -6.566406 21.859375 -4.035156 20.078125 -2.265625 C 18.296875 -0.492188 15.804688 0.390625 12.609375 0.390625 Z M 12.609375 0.390625 "/></g></g></g><g fill="#ffffff" fill-opacity="1"><g transform="translate(245.996945, 282.763575)"><g><path d="M 23.046875 0 L 23.015625 -13.4375 L 16.421875 -2.375 L 14.078125 -2.375 L 7.515625 -13.15625 L 7.515625 0 L 2.65625 0 L 2.65625 -22.40625 L 6.9375 -22.40625 L 15.328125 -8.484375 L 23.578125 -22.40625 L 27.84375 -22.40625 L 27.90625 0 Z M 23.046875 0 "/></g></g></g><g fill="#ffffff" fill-opacity="1"><g transform="translate(100.498969, 307.013418)"><g><path d="M 4.25 -10.625 L 0.078125 -10.625 L 0.078125 -12.59375 L 10.765625 -12.59375 L 10.765625 -10.625 L 6.59375 -10.625 L 6.59375 0 L 4.25 0 Z M 4.25 -10.625 "/></g></g></g><g fill="#ffffff" fill-opacity="1"><g transform="translate(115.996932, 307.013418)"><g><path d="M 11.140625 -1.96875 L 11.140625 0 L 1.6875 0 L 1.6875 -12.59375 L 10.890625 -12.59375 L 10.890625 -10.640625 L 4.03125 -10.640625 L 4.03125 -7.359375 L 10.109375 -7.359375 L 10.109375 -5.4375 L 4.03125 -5.4375 L 4.03125 -1.96875 Z M 11.140625 -1.96875 "/></g></g></g><g fill="#ffffff" fill-opacity="1"><g transform="translate(132.718898, 307.013418)"><g><path d="M 7.53125 0.1875 C 6.25 0.1875 5.09375 -0.09375 4.0625 -0.65625 C 3.039062 -1.21875 2.238281 -1.988281 1.65625 -2.96875 C 1.082031 -3.957031 0.796875 -5.066406 0.796875 -6.296875 C 0.796875 -7.535156 1.085938 -8.644531 1.671875 -9.625 C 2.265625 -10.613281 3.070312 -11.382812 4.09375 -11.9375 C 5.125 -12.5 6.273438 -12.78125 7.546875 -12.78125 C 8.578125 -12.78125 9.515625 -12.597656 10.359375 -12.234375 C 11.210938 -11.878906 11.9375 -11.359375 12.53125 -10.671875 L 11.015625 -9.25 C 10.097656 -10.238281 8.976562 -10.734375 7.65625 -10.734375 C 6.789062 -10.734375 6.015625 -10.539062 5.328125 -10.15625 C 4.640625 -9.78125 4.101562 -9.253906 3.71875 -8.578125 C 3.34375 -7.910156 3.15625 -7.148438 3.15625 -6.296875 C 3.15625 -5.441406 3.34375 -4.675781 3.71875 -4 C 4.101562 -3.332031 4.640625 -2.8125 5.328125 -2.4375 C 6.015625 -2.0625 6.789062 -1.875 7.65625 -1.875 C 8.976562 -1.875 10.097656 -2.367188 11.015625 -3.359375 L 12.53125 -1.921875 C 11.9375 -1.242188 11.210938 -0.722656 10.359375 -0.359375 C 9.503906 0.00390625 8.5625 0.1875 7.53125 0.1875 Z M 7.53125 0.1875 "/></g></g></g><g fill="#ffffff" fill-opacity="1"><g transform="translate(150.466858, 307.013418)"><g><path d="M 12.890625 -12.59375 L 12.890625 0 L 10.546875 0 L 10.546875 -5.40625 L 4.03125 -5.40625 L 4.03125 0 L 1.6875 0 L 1.6875 -12.59375 L 4.03125 -12.59375 L 4.03125 -7.390625 L 10.546875 -7.390625 L 10.546875 -12.59375 Z M 12.890625 -12.59375 "/></g></g></g><g fill="#ffffff" fill-opacity="1"><g transform="translate(169.708815, 307.013418)"><g><path d="M 12.890625 -12.59375 L 12.890625 0 L 10.96875 0 L 4.015625 -8.53125 L 4.015625 0 L 1.6875 0 L 1.6875 -12.59375 L 3.625 -12.59375 L 10.5625 -4.0625 L 10.5625 -12.59375 Z M 12.890625 -12.59375 "/></g></g></g><g fill="#ffffff" fill-opacity="1"><g transform="translate(188.950773, 307.013418)"><g><path d="M 7.578125 0.1875 C 6.296875 0.1875 5.140625 -0.09375 4.109375 -0.65625 C 3.078125 -1.21875 2.265625 -1.992188 1.671875 -2.984375 C 1.085938 -3.972656 0.796875 -5.078125 0.796875 -6.296875 C 0.796875 -7.523438 1.085938 -8.632812 1.671875 -9.625 C 2.265625 -10.613281 3.078125 -11.382812 4.109375 -11.9375 C 5.140625 -12.5 6.296875 -12.78125 7.578125 -12.78125 C 8.859375 -12.78125 10.015625 -12.5 11.046875 -11.9375 C 12.078125 -11.382812 12.882812 -10.613281 13.46875 -9.625 C 14.0625 -8.644531 14.359375 -7.535156 14.359375 -6.296875 C 14.359375 -5.066406 14.0625 -3.957031 13.46875 -2.96875 C 12.882812 -1.988281 12.078125 -1.21875 11.046875 -0.65625 C 10.015625 -0.09375 8.859375 0.1875 7.578125 0.1875 Z M 7.578125 -1.875 C 8.421875 -1.875 9.175781 -2.0625 9.84375 -2.4375 C 10.519531 -2.8125 11.046875 -3.335938 11.421875 -4.015625 C 11.804688 -4.703125 12 -5.460938 12 -6.296875 C 12 -7.140625 11.804688 -7.898438 11.421875 -8.578125 C 11.046875 -9.253906 10.519531 -9.78125 9.84375 -10.15625 C 9.175781 -10.539062 8.421875 -10.734375 7.578125 -10.734375 C 6.734375 -10.734375 5.972656 -10.539062 5.296875 -10.15625 C 4.628906 -9.78125 4.101562 -9.253906 3.71875 -8.578125 C 3.34375 -7.898438 3.15625 -7.140625 3.15625 -6.296875 C 3.15625 -5.460938 3.34375 -4.703125 3.71875 -4.015625 C 4.101562 -3.335938 4.628906 -2.8125 5.296875 -2.4375 C 5.972656 -2.0625 6.734375 -1.875 7.578125 -1.875 Z M 7.578125 -1.875 "/></g></g></g><g fill="#ffffff" fill-opacity="1"><g transform="translate(208.768734, 307.013418)"><g><path d="M 1.6875 -12.59375 L 4.03125 -12.59375 L 4.03125 -1.984375 L 10.625 -1.984375 L 10.625 0 L 1.6875 0 Z M 1.6875 -12.59375 "/></g></g></g><g fill="#ffffff" fill-opacity="1"><g transform="translate(224.212706, 307.013418)"><g><path d="M 7.578125 0.1875 C 6.296875 0.1875 5.140625 -0.09375 4.109375 -0.65625 C 3.078125 -1.21875 2.265625 -1.992188 1.671875 -2.984375 C 1.085938 -3.972656 0.796875 -5.078125 0.796875 -6.296875 C 0.796875 -7.523438 1.085938 -8.632812 1.671875 -9.625 C 2.265625 -10.613281 3.078125 -11.382812 4.109375 -11.9375 C 5.140625 -12.5 6.296875 -12.78125 7.578125 -12.78125 C 8.859375 -12.78125 10.015625 -12.5 11.046875 -11.9375 C 12.078125 -11.382812 12.882812 -10.613281 13.46875 -9.625 C 14.0625 -8.644531 14.359375 -7.535156 14.359375 -6.296875 C 14.359375 -5.066406 14.0625 -3.957031 13.46875 -2.96875 C 12.882812 -1.988281 12.078125 -1.21875 11.046875 -0.65625 C 10.015625 -0.09375 8.859375 0.1875 7.578125 0.1875 Z M 7.578125 -1.875 C 8.421875 -1.875 9.175781 -2.0625 9.84375 -2.4375 C 10.519531 -2.8125 11.046875 -3.335938 11.421875 -4.015625 C 11.804688 -4.703125 12 -5.460938 12 -6.296875 C 12 -7.140625 11.804688 -7.898438 11.421875 -8.578125 C 11.046875 -9.253906 10.519531 -9.78125 9.84375 -10.15625 C 9.175781 -10.539062 8.421875 -10.734375 7.578125 -10.734375 C 6.734375 -10.734375 5.972656 -10.539062 5.296875 -10.15625 C 4.628906 -9.78125 4.101562 -9.253906 3.71875 -8.578125 C 3.34375 -7.898438 3.15625 -7.140625 3.15625 -6.296875 C 3.15625 -5.460938 3.34375 -4.703125 3.71875 -4.015625 C 4.101562 -3.335938 4.628906 -2.8125 5.296875 -2.4375 C 5.972656 -2.0625 6.734375 -1.875 7.578125 -1.875 Z M 7.578125 -1.875 "/></g></g></g><g fill="#ffffff" fill-opacity="1"><g transform="translate(244.030668, 307.013418)"><g><path d="M 10.296875 -6.4375 L 12.515625 -6.4375 L 12.515625 -1.421875 C 11.859375 -0.898438 11.097656 -0.5 10.234375 -0.21875 C 9.378906 0.0507812 8.492188 0.1875 7.578125 0.1875 C 6.296875 0.1875 5.140625 -0.09375 4.109375 -0.65625 C 3.078125 -1.21875 2.265625 -1.988281 1.671875 -2.96875 C 1.085938 -3.957031 0.796875 -5.066406 0.796875 -6.296875 C 0.796875 -7.535156 1.085938 -8.644531 1.671875 -9.625 C 2.265625 -10.613281 3.078125 -11.382812 4.109375 -11.9375 C 5.148438 -12.5 6.316406 -12.78125 7.609375 -12.78125 C 8.671875 -12.78125 9.632812 -12.601562 10.5 -12.25 C 11.363281 -11.90625 12.085938 -11.398438 12.671875 -10.734375 L 11.203125 -9.28125 C 10.234375 -10.25 9.070312 -10.734375 7.71875 -10.734375 C 6.832031 -10.734375 6.039062 -10.546875 5.34375 -10.171875 C 4.65625 -9.796875 4.117188 -9.269531 3.734375 -8.59375 C 3.347656 -7.925781 3.15625 -7.160156 3.15625 -6.296875 C 3.15625 -5.460938 3.347656 -4.707031 3.734375 -4.03125 C 4.117188 -3.363281 4.65625 -2.835938 5.34375 -2.453125 C 6.039062 -2.066406 6.828125 -1.875 7.703125 -1.875 C 8.691406 -1.875 9.554688 -2.085938 10.296875 -2.515625 Z M 10.296875 -6.4375 "/></g></g></g><g fill="#ffffff" fill-opacity="1"><g transform="translate(262.588623, 307.013418)"><g><path d="M 7.125 -4.453125 L 7.125 0 L 4.78125 0 L 4.78125 -4.40625 L -0.15625 -12.59375 L 2.34375 -12.59375 L 6.03125 -6.46875 L 9.75 -12.59375 L 12.0625 -12.59375 Z M 7.125 -4.453125 "/></g></g></g></svg>