<svg xmlns="http://www.w3.org/2000/svg" xmlns:xlink="http://www.w3.org/1999/xlink" width="500" zoomAndPan="magnify" viewBox="0 0 375 374.999991" height="500" preserveAspectRatio="xMidYMid meet" version="1.0"><defs><g/><clipPath id="aee6d257f6"><path d="M 149.148438 160 L 167 160 L 167 176.347656 L 149.148438 176.347656 Z M 149.148438 160 " clip-rule="nonzero"/></clipPath><clipPath id="d0fbe54876"><path d="M 178 109.597656 L 196 109.597656 L 196 127 L 178 127 Z M 178 109.597656 " clip-rule="nonzero"/></clipPath><clipPath id="be3fa6de40"><path d="M 208 160 L 225.648438 160 L 225.648438 176.347656 L 208 176.347656 Z M 208 160 " clip-rule="nonzero"/></clipPath><clipPath id="30fd8000e6"><path d="M 162 133 L 212 133 L 212 176.347656 L 162 176.347656 Z M 162 133 " clip-rule="nonzero"/></clipPath></defs><rect x="-37.5" width="450" fill="#ffffff" y="-37.499999" height="449.999989" fill-opacity="1"/><rect x="-37.5" width="450" fill="#000000" y="-37.499999" height="449.999989" fill-opacity="1"/><g clip-path="url(#aee6d257f6)"><path fill="#df0219" d="M 159.640625 161.703125 C 158.609375 160.480469 157.117188 160.617188 156.316406 162.007812 L 149.511719 173.832031 C 148.707031 175.222656 149.355469 176.347656 150.960938 176.347656 L 164.628906 176.347656 C 166.21875 176.347656 167.078125 175.128906 166.542969 173.621094 Z M 159.640625 161.703125 " fill-opacity="1" fill-rule="nonzero"/></g><g clip-path="url(#d0fbe54876)"><path fill="#df0219" d="M 180.417969 125.734375 C 180.417969 125.734375 184.011719 126.761719 187.339844 126.761719 C 190.664062 126.761719 194.238281 125.753906 194.238281 125.753906 C 195.769531 125.3125 196.382812 123.828125 195.578125 122.453125 L 188.753906 110.628906 C 187.949219 109.257812 186.652344 109.257812 185.847656 110.628906 L 179.0625 122.414062 C 178.277344 123.808594 178.871094 125.296875 180.417969 125.734375 Z M 180.417969 125.734375 " fill-opacity="1" fill-rule="nonzero"/></g><g clip-path="url(#be3fa6de40)"><path fill="#df0219" d="M 225.285156 173.832031 L 218.441406 161.988281 C 217.636719 160.617188 216.144531 160.480469 215.132812 161.703125 L 208.367188 173.601562 C 207.832031 175.109375 208.710938 176.332031 210.296875 176.332031 L 223.832031 176.332031 C 225.4375 176.347656 226.085938 175.222656 225.285156 173.832031 Z M 225.285156 173.832031 " fill-opacity="1" fill-rule="nonzero"/></g><g clip-path="url(#30fd8000e6)"><path fill="#df0219" d="M 211.273438 149.609375 L 202.726562 134.832031 C 201.925781 133.457031 200.03125 132.714844 198.503906 133.191406 C 198.503906 133.191406 192.136719 135.175781 187.320312 135.175781 C 182.503906 135.175781 176.136719 133.171875 176.136719 133.171875 C 174.609375 132.695312 172.714844 133.4375 171.933594 134.8125 L 163.425781 149.609375 C 162.625 150.984375 162.832031 153.101562 163.902344 154.304688 L 175.085938 173.601562 C 175.601562 175.109375 177.324219 176.347656 178.910156 176.347656 L 196.019531 176.347656 C 197.605469 176.347656 199.324219 175.109375 199.839844 173.601562 L 210.832031 154.304688 C 211.863281 153.101562 212.074219 150.984375 211.273438 149.609375 Z M 199.9375 149.667969 C 195.789062 153.519531 191.277344 161.109375 189.902344 166.507812 C 188.523438 171.90625 186.269531 171.90625 184.875 166.507812 C 183.496094 161.109375 178.96875 153.519531 174.839844 149.667969 C 170.691406 145.816406 171.816406 143.910156 177.34375 145.453125 C 182.867188 147 191.890625 147 197.414062 145.453125 C 202.957031 143.910156 204.085938 145.816406 199.9375 149.667969 Z M 199.9375 149.667969 " fill-opacity="1" fill-rule="nonzero"/></g><g fill="#ffffff" fill-opacity="1"><g transform="translate(81.597655, 212.750494)"><g><path d="M 0.578125 0 C 0.285156 0 0.140625 -0.113281 0.140625 -0.34375 C 0.140625 -0.382812 0.15625 -0.457031 0.1875 -0.5625 L 7.890625 -20.140625 C 7.984375 -20.390625 8.171875 -20.515625 8.453125 -20.515625 L 10.859375 -20.515625 C 11.140625 -20.515625 11.328125 -20.390625 11.421875 -20.140625 L 19.125 -0.5625 C 19.15625 -0.457031 19.171875 -0.382812 19.171875 -0.34375 C 19.171875 -0.113281 19.023438 0 18.734375 0 L 16.890625 0 C 16.617188 0 16.4375 -0.128906 16.34375 -0.390625 L 14.890625 -4.0625 C 14.796875 -4.3125 14.613281 -4.4375 14.34375 -4.4375 L 4.96875 -4.4375 C 4.695312 -4.4375 4.515625 -4.3125 4.421875 -4.0625 L 2.96875 -0.390625 C 2.875 -0.128906 2.6875 0 2.40625 0 Z M 6.203125 -7.09375 L 13.109375 -7.09375 C 13.398438 -7.09375 13.546875 -7.207031 13.546875 -7.4375 C 13.546875 -7.476562 13.53125 -7.550781 13.5 -7.65625 L 9.96875 -16.609375 C 9.90625 -16.816406 9.800781 -16.921875 9.65625 -16.921875 C 9.539062 -16.921875 9.4375 -16.816406 9.34375 -16.609375 L 5.8125 -7.65625 C 5.78125 -7.550781 5.765625 -7.476562 5.765625 -7.4375 C 5.765625 -7.207031 5.910156 -7.09375 6.203125 -7.09375 Z M 6.203125 -7.09375 "/></g></g></g><g fill="#ffffff" fill-opacity="1"><g transform="translate(100.910131, 212.750494)"><g><path d="M 1.6875 0 C 1.363281 0 1.203125 -0.160156 1.203125 -0.484375 L 1.203125 -14.75 C 1.203125 -15.070312 1.363281 -15.234375 1.6875 -15.234375 L 3.375 -15.234375 C 3.695312 -15.234375 3.859375 -15.070312 3.859375 -14.75 L 3.859375 -14.609375 C 3.859375 -14.347656 3.957031 -14.21875 4.15625 -14.21875 C 4.226562 -14.21875 4.320312 -14.25 4.4375 -14.3125 C 5.320312 -14.925781 6.320312 -15.234375 7.4375 -15.234375 L 8.203125 -15.234375 C 8.523438 -15.234375 8.6875 -15.070312 8.6875 -14.75 L 8.6875 -13.0625 C 8.6875 -12.738281 8.523438 -12.578125 8.203125 -12.578125 L 7.4375 -12.578125 C 6.457031 -12.578125 5.640625 -12.285156 4.984375 -11.703125 C 4.328125 -11.128906 3.953125 -10.375 3.859375 -9.4375 L 3.859375 -0.484375 C 3.859375 -0.160156 3.695312 0 3.375 0 Z M 1.6875 0 "/></g></g></g><g fill="#ffffff" fill-opacity="1"><g transform="translate(110.324967, 212.750494)"><g><path d="M 1.6875 -17 C 1.5625 -17 1.445312 -17.046875 1.34375 -17.140625 C 1.25 -17.234375 1.203125 -17.347656 1.203125 -17.484375 L 1.203125 -20.03125 C 1.203125 -20.164062 1.25 -20.28125 1.34375 -20.375 C 1.445312 -20.46875 1.5625 -20.515625 1.6875 -20.515625 L 4.34375 -20.515625 C 4.46875 -20.515625 4.578125 -20.46875 4.671875 -20.375 C 4.773438 -20.28125 4.828125 -20.164062 4.828125 -20.03125 L 4.828125 -17.484375 C 4.828125 -17.347656 4.773438 -17.234375 4.671875 -17.140625 C 4.578125 -17.046875 4.46875 -17 4.34375 -17 Z M 2.171875 0 C 2.046875 0 1.929688 -0.046875 1.828125 -0.140625 C 1.734375 -0.242188 1.6875 -0.359375 1.6875 -0.484375 L 1.6875 -14.75 C 1.6875 -14.875 1.734375 -14.984375 1.828125 -15.078125 C 1.929688 -15.179688 2.046875 -15.234375 2.171875 -15.234375 L 3.859375 -15.234375 C 3.992188 -15.234375 4.109375 -15.179688 4.203125 -15.078125 C 4.296875 -14.984375 4.34375 -14.875 4.34375 -14.75 L 4.34375 -0.484375 C 4.34375 -0.359375 4.296875 -0.242188 4.203125 -0.140625 C 4.109375 -0.046875 3.992188 0 3.859375 0 Z M 2.171875 0 "/></g></g></g><g fill="#ffffff" fill-opacity="1"><g transform="translate(116.360111, 212.750494)"><g><path d="M 7.09375 0 C 5.90625 0 4.835938 -0.269531 3.890625 -0.8125 C 2.953125 -1.363281 2.207031 -2.109375 1.65625 -3.046875 C 1.113281 -3.992188 0.84375 -5.0625 0.84375 -6.25 L 0.84375 -8.984375 C 0.84375 -10.171875 1.113281 -11.234375 1.65625 -12.171875 C 2.207031 -13.117188 2.953125 -13.863281 3.890625 -14.40625 C 4.835938 -14.957031 5.90625 -15.234375 7.09375 -15.234375 L 7.875 -15.234375 C 9.0625 -15.234375 10.125 -14.957031 11.0625 -14.40625 C 12.007812 -13.863281 12.753906 -13.117188 13.296875 -12.171875 C 13.847656 -11.234375 14.125 -10.171875 14.125 -8.984375 L 14.125 -6.25 C 14.125 -5.0625 13.847656 -3.992188 13.296875 -3.046875 C 12.753906 -2.109375 12.007812 -1.363281 11.0625 -0.8125 C 10.125 -0.269531 9.0625 0 7.875 0 Z M 7.09375 -2.65625 L 7.875 -2.65625 C 8.914062 -2.65625 9.773438 -2.992188 10.453125 -3.671875 C 11.128906 -4.347656 11.46875 -5.207031 11.46875 -6.25 L 11.46875 -8.984375 C 11.46875 -10.023438 11.128906 -10.882812 10.453125 -11.5625 C 9.773438 -12.238281 8.914062 -12.578125 7.875 -12.578125 L 7.09375 -12.578125 C 6.050781 -12.578125 5.191406 -12.238281 4.515625 -11.5625 C 3.835938 -10.882812 3.5 -10.023438 3.5 -8.984375 L 3.5 -6.25 C 3.5 -5.207031 3.835938 -4.347656 4.515625 -3.671875 C 5.191406 -2.992188 6.050781 -2.65625 7.09375 -2.65625 Z M 7.09375 -2.65625 "/></g></g></g><g fill="#ffffff" fill-opacity="1"><g transform="translate(131.327278, 212.750494)"><g><path d="M 6.34375 0 C 6.070312 0 5.890625 -0.128906 5.796875 -0.390625 L 0.21875 -14.671875 C 0.1875 -14.773438 0.171875 -14.847656 0.171875 -14.890625 C 0.171875 -15.117188 0.316406 -15.234375 0.609375 -15.234375 L 2.53125 -15.234375 C 2.800781 -15.234375 2.988281 -15.101562 3.09375 -14.84375 L 7.5625 -3.15625 C 7.632812 -2.945312 7.738281 -2.84375 7.875 -2.84375 C 8 -2.84375 8.101562 -2.945312 8.1875 -3.15625 L 12.625 -14.84375 C 12.71875 -15.101562 12.90625 -15.234375 13.1875 -15.234375 L 15.109375 -15.234375 C 15.398438 -15.234375 15.546875 -15.117188 15.546875 -14.890625 C 15.546875 -14.847656 15.53125 -14.773438 15.5 -14.671875 L 9.921875 -0.390625 C 9.828125 -0.128906 9.640625 0 9.359375 0 Z M 6.34375 0 "/></g></g></g><g fill="#ffffff" fill-opacity="1"><g transform="translate(147.042807, 212.750494)"><g><path d="M 5.53125 0 C 4.644531 0 3.847656 -0.203125 3.140625 -0.609375 C 2.429688 -1.023438 1.867188 -1.582031 1.453125 -2.28125 C 1.046875 -2.976562 0.84375 -3.769531 0.84375 -4.65625 C 0.84375 -5.539062 1.046875 -6.332031 1.453125 -7.03125 C 1.867188 -7.738281 2.429688 -8.296875 3.140625 -8.703125 C 3.847656 -9.109375 4.644531 -9.3125 5.53125 -9.3125 L 10.859375 -9.3125 C 11.003906 -9.3125 11.128906 -9.359375 11.234375 -9.453125 C 11.335938 -9.554688 11.382812 -9.6875 11.375 -9.84375 C 11.289062 -10.75 10.988281 -11.429688 10.46875 -11.890625 C 9.957031 -12.347656 9.304688 -12.578125 8.515625 -12.578125 L 6.296875 -12.578125 C 5.691406 -12.578125 5.15625 -12.421875 4.6875 -12.109375 C 4.21875 -11.804688 3.867188 -11.40625 3.640625 -10.90625 C 3.566406 -10.71875 3.429688 -10.625 3.234375 -10.625 L 1.46875 -10.625 C 1.3125 -10.625 1.175781 -10.6875 1.0625 -10.8125 C 0.945312 -10.945312 0.914062 -11.09375 0.96875 -11.25 C 1.269531 -12.4375 1.898438 -13.394531 2.859375 -14.125 C 3.816406 -14.863281 4.960938 -15.234375 6.296875 -15.234375 L 8.515625 -15.234375 C 9.597656 -15.234375 10.550781 -14.992188 11.375 -14.515625 C 12.207031 -14.046875 12.859375 -13.394531 13.328125 -12.5625 C 13.804688 -11.738281 14.046875 -10.785156 14.046875 -9.703125 L 14.046875 -0.484375 C 14.046875 -0.359375 14 -0.242188 13.90625 -0.140625 C 13.8125 -0.046875 13.695312 0 13.5625 0 L 11.875 0 C 11.75 0 11.632812 -0.046875 11.53125 -0.140625 C 11.4375 -0.242188 11.390625 -0.359375 11.390625 -0.484375 C 11.390625 -0.722656 11.300781 -0.84375 11.125 -0.84375 C 11.0625 -0.84375 10.984375 -0.816406 10.890625 -0.765625 C 9.953125 -0.253906 8.878906 0 7.671875 0 Z M 5.53125 -2.65625 L 7.671875 -2.65625 C 8.398438 -2.65625 9.039062 -2.8125 9.59375 -3.125 C 10.144531 -3.4375 10.582031 -3.875 10.90625 -4.4375 C 11.226562 -5 11.390625 -5.632812 11.390625 -6.34375 C 11.390625 -6.425781 11.34375 -6.5 11.25 -6.5625 C 11.15625 -6.625 11.039062 -6.65625 10.90625 -6.65625 L 5.53125 -6.65625 C 4.9375 -6.65625 4.445312 -6.46875 4.0625 -6.09375 C 3.6875 -5.726562 3.5 -5.25 3.5 -4.65625 C 3.5 -4.0625 3.6875 -3.578125 4.0625 -3.203125 C 4.445312 -2.835938 4.9375 -2.65625 5.53125 -2.65625 Z M 5.53125 -2.65625 "/></g></g></g><g fill="#ffffff" fill-opacity="1"><g transform="translate(162.299669, 212.750494)"><g/></g></g><g fill="#ffffff" fill-opacity="1"><g transform="translate(168.334814, 212.750494)"><g><path d="M 1.09375 0 C 0.957031 0 0.84375 -0.046875 0.75 -0.140625 C 0.65625 -0.242188 0.609375 -0.359375 0.609375 -0.484375 L 0.609375 -2.171875 C 0.609375 -2.296875 0.65625 -2.40625 0.75 -2.5 C 0.84375 -2.601562 0.957031 -2.65625 1.09375 -2.65625 L 3.015625 -2.65625 C 3.335938 -2.65625 3.5 -2.816406 3.5 -3.140625 L 3.5 -17.375 C 3.5 -17.695312 3.335938 -17.859375 3.015625 -17.859375 L 1.09375 -17.859375 C 0.957031 -17.859375 0.84375 -17.90625 0.75 -18 C 0.65625 -18.101562 0.609375 -18.21875 0.609375 -18.34375 L 0.609375 -20.03125 C 0.609375 -20.164062 0.65625 -20.28125 0.75 -20.375 C 0.84375 -20.46875 0.957031 -20.515625 1.09375 -20.515625 L 8.5625 -20.515625 C 8.695312 -20.515625 8.8125 -20.46875 8.90625 -20.375 C 9 -20.28125 9.046875 -20.164062 9.046875 -20.03125 L 9.046875 -18.34375 C 9.046875 -18.21875 9 -18.101562 8.90625 -18 C 8.8125 -17.90625 8.695312 -17.859375 8.5625 -17.859375 L 6.640625 -17.859375 C 6.316406 -17.859375 6.15625 -17.695312 6.15625 -17.375 L 6.15625 -3.140625 C 6.15625 -2.816406 6.316406 -2.65625 6.640625 -2.65625 L 8.5625 -2.65625 C 8.695312 -2.65625 8.8125 -2.601562 8.90625 -2.5 C 9 -2.40625 9.046875 -2.296875 9.046875 -2.171875 L 9.046875 -0.484375 C 9.046875 -0.359375 9 -0.242188 8.90625 -0.140625 C 8.8125 -0.046875 8.695312 0 8.5625 0 Z M 1.09375 0 "/></g></g></g><g fill="#ffffff" fill-opacity="1"><g transform="translate(177.991052, 212.750494)"><g><path d="M 1.671875 0 C 1.328125 0 1.171875 -0.160156 1.203125 -0.484375 L 1.203125 -14.75 C 1.203125 -15.070312 1.363281 -15.234375 1.6875 -15.234375 L 3.375 -15.234375 C 3.695312 -15.234375 3.859375 -15.070312 3.859375 -14.75 C 3.859375 -14.539062 3.957031 -14.4375 4.15625 -14.4375 C 4.226562 -14.4375 4.320312 -14.460938 4.4375 -14.515625 C 4.875 -14.734375 5.34375 -14.90625 5.84375 -15.03125 C 6.351562 -15.164062 6.882812 -15.234375 7.4375 -15.234375 L 8.203125 -15.234375 C 9.398438 -15.234375 10.46875 -14.957031 11.40625 -14.40625 C 12.34375 -13.863281 13.082031 -13.117188 13.625 -12.171875 C 14.175781 -11.234375 14.453125 -10.171875 14.453125 -8.984375 L 14.453125 -0.484375 C 14.453125 -0.160156 14.296875 0 13.984375 0 L 12.28125 0 C 11.96875 0 11.8125 -0.160156 11.8125 -0.484375 L 11.8125 -8.984375 C 11.8125 -10.023438 11.472656 -10.882812 10.796875 -11.5625 C 10.117188 -12.238281 9.253906 -12.578125 8.203125 -12.578125 L 7.4375 -12.578125 C 6.457031 -12.578125 5.613281 -12.257812 4.90625 -11.625 C 4.207031 -11 3.851562 -10.117188 3.84375 -8.984375 L 3.84375 -0.484375 C 3.84375 -0.160156 3.679688 0 3.359375 0 Z M 1.671875 0 "/></g></g></g><g fill="#ffffff" fill-opacity="1"><g transform="translate(193.416897, 212.750494)"><g><path d="M 7.09375 0 C 5.90625 0 4.835938 -0.269531 3.890625 -0.8125 C 2.953125 -1.363281 2.207031 -2.109375 1.65625 -3.046875 C 1.113281 -3.992188 0.84375 -5.0625 0.84375 -6.25 L 0.84375 -8.984375 C 0.84375 -10.171875 1.113281 -11.234375 1.65625 -12.171875 C 2.207031 -13.117188 2.953125 -13.863281 3.890625 -14.40625 C 4.835938 -14.957031 5.90625 -15.234375 7.09375 -15.234375 L 7.875 -15.234375 C 8.4375 -15.234375 8.96875 -15.164062 9.46875 -15.03125 C 9.96875 -14.90625 10.441406 -14.734375 10.890625 -14.515625 C 10.984375 -14.460938 11.070312 -14.4375 11.15625 -14.4375 C 11.363281 -14.4375 11.46875 -14.566406 11.46875 -14.828125 L 11.46875 -20.03125 C 11.46875 -20.351562 11.628906 -20.515625 11.953125 -20.515625 L 13.640625 -20.515625 C 13.960938 -20.515625 14.125 -20.351562 14.125 -20.03125 L 14.125 -0.484375 C 14.125 -0.160156 13.960938 0 13.640625 0 L 11.953125 0 C 11.628906 0 11.46875 -0.160156 11.46875 -0.484375 L 11.46875 -0.53125 C 11.46875 -0.726562 11.378906 -0.828125 11.203125 -0.828125 C 11.148438 -0.828125 11.097656 -0.816406 11.046875 -0.796875 C 11.003906 -0.773438 10.953125 -0.75 10.890625 -0.71875 C 10.441406 -0.5 9.96875 -0.320312 9.46875 -0.1875 C 8.96875 -0.0625 8.4375 0 7.875 0 Z M 7.09375 -2.65625 L 7.875 -2.65625 C 8.914062 -2.65625 9.773438 -2.992188 10.453125 -3.671875 C 11.128906 -4.347656 11.46875 -5.207031 11.46875 -6.25 L 11.46875 -8.984375 C 11.46875 -10.023438 11.128906 -10.882812 10.453125 -11.5625 C 9.773438 -12.238281 8.914062 -12.578125 7.875 -12.578125 L 7.09375 -12.578125 C 6.050781 -12.578125 5.191406 -12.238281 4.515625 -11.5625 C 3.835938 -10.882812 3.5 -10.023438 3.5 -8.984375 L 3.5 -6.25 C 3.5 -5.207031 3.835938 -4.347656 4.515625 -3.671875 C 5.191406 -2.992188 6.050781 -2.65625 7.09375 -2.65625 Z M 7.09375 -2.65625 "/></g></g></g><g fill="#ffffff" fill-opacity="1"><g transform="translate(208.746177, 212.750494)"><g><path d="M 7.21875 0 C 6.03125 0 4.960938 -0.269531 4.015625 -0.8125 C 3.078125 -1.363281 2.332031 -2.109375 1.78125 -3.046875 C 1.238281 -3.992188 0.96875 -5.0625 0.96875 -6.25 L 0.96875 -14.75 C 0.96875 -14.875 1.015625 -14.984375 1.109375 -15.078125 C 1.203125 -15.179688 1.316406 -15.234375 1.453125 -15.234375 L 3.140625 -15.234375 C 3.265625 -15.234375 3.375 -15.179688 3.46875 -15.078125 C 3.570312 -14.984375 3.625 -14.875 3.625 -14.75 L 3.625 -6.25 C 3.625 -5.207031 3.960938 -4.347656 4.640625 -3.671875 C 5.316406 -2.992188 6.175781 -2.65625 7.21875 -2.65625 L 7.984375 -2.65625 C 9.035156 -2.65625 9.898438 -2.992188 10.578125 -3.671875 C 11.253906 -4.347656 11.59375 -5.207031 11.59375 -6.25 L 11.59375 -14.75 C 11.59375 -14.875 11.640625 -14.984375 11.734375 -15.078125 C 11.828125 -15.179688 11.9375 -15.234375 12.0625 -15.234375 L 13.78125 -15.234375 C 13.914062 -15.234375 14.03125 -15.179688 14.125 -15.078125 C 14.21875 -14.984375 14.257812 -14.875 14.25 -14.75 L 14.25 -0.484375 C 14.25 -0.359375 14.195312 -0.242188 14.09375 -0.140625 C 14 -0.046875 13.890625 0 13.765625 0 L 12.0625 0 C 11.9375 0 11.828125 -0.046875 11.734375 -0.140625 C 11.640625 -0.242188 11.59375 -0.359375 11.59375 -0.484375 C 11.59375 -0.710938 11.503906 -0.828125 11.328125 -0.828125 C 11.253906 -0.828125 11.171875 -0.800781 11.078125 -0.75 C 10.128906 -0.25 9.097656 0 7.984375 0 Z M 7.21875 0 "/></g></g></g><g fill="#ffffff" fill-opacity="1"><g transform="translate(224.196158, 212.750494)"><g><path d="M 5 0 C 4.195312 0 3.46875 -0.179688 2.8125 -0.546875 C 2.15625 -0.921875 1.640625 -1.429688 1.265625 -2.078125 C 0.898438 -2.734375 0.71875 -3.460938 0.71875 -4.265625 L 0.71875 -4.75 C 0.71875 -4.882812 0.765625 -5 0.859375 -5.09375 C 0.960938 -5.1875 1.078125 -5.234375 1.203125 -5.234375 L 2.890625 -5.234375 C 3.023438 -5.234375 3.140625 -5.1875 3.234375 -5.09375 C 3.328125 -5 3.375 -4.882812 3.375 -4.75 L 3.375 -4.265625 C 3.375 -3.773438 3.519531 -3.382812 3.8125 -3.09375 C 4.101562 -2.800781 4.5 -2.65625 5 -2.65625 L 9.65625 -2.65625 C 10.15625 -2.65625 10.550781 -2.769531 10.84375 -3 C 11.132812 -3.238281 11.28125 -3.535156 11.28125 -3.890625 L 11.28125 -4.21875 C 11.28125 -4.59375 11.175781 -4.90625 10.96875 -5.15625 C 10.769531 -5.40625 10.492188 -5.5625 10.140625 -5.625 L 3.9375 -7 C 2.988281 -7.226562 2.210938 -7.707031 1.609375 -8.4375 C 1.015625 -9.164062 0.71875 -10.023438 0.71875 -11.015625 C 0.71875 -11.816406 0.898438 -12.535156 1.265625 -13.171875 C 1.640625 -13.804688 2.15625 -14.304688 2.8125 -14.671875 C 3.46875 -15.046875 4.195312 -15.234375 5 -15.234375 L 9.65625 -15.234375 C 10.476562 -15.234375 11.207031 -15.0625 11.84375 -14.71875 C 12.488281 -14.382812 12.992188 -13.921875 13.359375 -13.328125 C 13.734375 -12.742188 13.921875 -12.082031 13.921875 -11.34375 L 13.921875 -10.234375 C 13.921875 -10.109375 13.875 -9.992188 13.78125 -9.890625 C 13.6875 -9.796875 13.578125 -9.75 13.453125 -9.75 L 11.75 -9.75 C 11.625 -9.75 11.515625 -9.796875 11.421875 -9.890625 C 11.328125 -9.992188 11.28125 -10.109375 11.28125 -10.234375 L 11.28125 -11.34375 C 11.28125 -11.71875 11.132812 -12.015625 10.84375 -12.234375 C 10.550781 -12.460938 10.15625 -12.578125 9.65625 -12.578125 L 5 -12.578125 C 4.507812 -12.578125 4.113281 -12.429688 3.8125 -12.140625 C 3.519531 -11.847656 3.375 -11.472656 3.375 -11.015625 C 3.375 -10.660156 3.472656 -10.359375 3.671875 -10.109375 C 3.878906 -9.859375 4.160156 -9.691406 4.515625 -9.609375 L 10.71875 -8.234375 C 11.664062 -8.023438 12.4375 -7.550781 13.03125 -6.8125 C 13.625 -6.070312 13.921875 -5.207031 13.921875 -4.21875 L 13.921875 -3.890625 C 13.921875 -3.148438 13.734375 -2.484375 13.359375 -1.890625 C 12.992188 -1.304688 12.488281 -0.84375 11.84375 -0.5 C 11.207031 -0.164062 10.476562 0 9.65625 0 Z M 5 0 "/></g></g></g><g fill="#ffffff" fill-opacity="1"><g transform="translate(238.849504, 212.750494)"><g><path d="M 7.078125 0 C 6.203125 0 5.429688 -0.1875 4.765625 -0.5625 C 4.097656 -0.945312 3.570312 -1.472656 3.1875 -2.140625 C 2.8125 -2.816406 2.625 -3.582031 2.625 -4.4375 L 2.625 -12.0625 C 2.625 -12.195312 2.578125 -12.3125 2.484375 -12.40625 C 2.390625 -12.5 2.28125 -12.546875 2.15625 -12.546875 L 0.96875 -12.546875 C 0.832031 -12.546875 0.71875 -12.59375 0.625 -12.6875 C 0.53125 -12.789062 0.484375 -12.90625 0.484375 -13.03125 L 0.484375 -14.71875 C 0.484375 -14.851562 0.53125 -14.96875 0.625 -15.0625 C 0.71875 -15.15625 0.832031 -15.203125 0.96875 -15.203125 L 2.15625 -15.203125 C 2.28125 -15.203125 2.390625 -15.25 2.484375 -15.34375 C 2.578125 -15.445312 2.625 -15.5625 2.625 -15.6875 L 2.625 -20.03125 C 2.625 -20.164062 2.671875 -20.28125 2.765625 -20.375 C 2.867188 -20.46875 2.984375 -20.515625 3.109375 -20.515625 L 4.796875 -20.515625 C 4.929688 -20.515625 5.046875 -20.46875 5.140625 -20.375 C 5.234375 -20.28125 5.28125 -20.164062 5.28125 -20.03125 L 5.28125 -15.71875 C 5.28125 -15.582031 5.328125 -15.46875 5.421875 -15.375 C 5.523438 -15.28125 5.640625 -15.234375 5.765625 -15.234375 L 7.96875 -15.234375 C 8.09375 -15.234375 8.203125 -15.179688 8.296875 -15.078125 C 8.398438 -14.984375 8.453125 -14.875 8.453125 -14.75 L 8.453125 -13.03125 C 8.453125 -12.90625 8.398438 -12.789062 8.296875 -12.6875 C 8.203125 -12.59375 8.09375 -12.546875 7.96875 -12.546875 L 5.765625 -12.546875 C 5.640625 -12.546875 5.523438 -12.5 5.421875 -12.40625 C 5.328125 -12.3125 5.28125 -12.195312 5.28125 -12.0625 L 5.28125 -4.640625 C 5.28125 -4.054688 5.460938 -3.578125 5.828125 -3.203125 C 6.203125 -2.835938 6.679688 -2.65625 7.265625 -2.65625 L 7.96875 -2.65625 C 8.09375 -2.65625 8.203125 -2.601562 8.296875 -2.5 C 8.398438 -2.40625 8.453125 -2.296875 8.453125 -2.171875 L 8.453125 -0.484375 C 8.453125 -0.359375 8.398438 -0.242188 8.296875 -0.140625 C 8.203125 -0.046875 8.09375 0 7.96875 0 Z M 7.078125 0 "/></g></g></g><g fill="#ffffff" fill-opacity="1"><g transform="translate(248.022927, 212.750494)"><g><path d="M 1.6875 0 C 1.363281 0 1.203125 -0.160156 1.203125 -0.484375 L 1.203125 -14.75 C 1.203125 -15.070312 1.363281 -15.234375 1.6875 -15.234375 L 3.375 -15.234375 C 3.695312 -15.234375 3.859375 -15.070312 3.859375 -14.75 L 3.859375 -14.609375 C 3.859375 -14.347656 3.957031 -14.21875 4.15625 -14.21875 C 4.226562 -14.21875 4.320312 -14.25 4.4375 -14.3125 C 5.320312 -14.925781 6.320312 -15.234375 7.4375 -15.234375 L 8.203125 -15.234375 C 8.523438 -15.234375 8.6875 -15.070312 8.6875 -14.75 L 8.6875 -13.0625 C 8.6875 -12.738281 8.523438 -12.578125 8.203125 -12.578125 L 7.4375 -12.578125 C 6.457031 -12.578125 5.640625 -12.285156 4.984375 -11.703125 C 4.328125 -11.128906 3.953125 -10.375 3.859375 -9.4375 L 3.859375 -0.484375 C 3.859375 -0.160156 3.695312 0 3.375 0 Z M 1.6875 0 "/></g></g></g><g fill="#ffffff" fill-opacity="1"><g transform="translate(257.437763, 212.750494)"><g><path d="M 1.6875 -17 C 1.5625 -17 1.445312 -17.046875 1.34375 -17.140625 C 1.25 -17.234375 1.203125 -17.347656 1.203125 -17.484375 L 1.203125 -20.03125 C 1.203125 -20.164062 1.25 -20.28125 1.34375 -20.375 C 1.445312 -20.46875 1.5625 -20.515625 1.6875 -20.515625 L 4.34375 -20.515625 C 4.46875 -20.515625 4.578125 -20.46875 4.671875 -20.375 C 4.773438 -20.28125 4.828125 -20.164062 4.828125 -20.03125 L 4.828125 -17.484375 C 4.828125 -17.347656 4.773438 -17.234375 4.671875 -17.140625 C 4.578125 -17.046875 4.46875 -17 4.34375 -17 Z M 2.171875 0 C 2.046875 0 1.929688 -0.046875 1.828125 -0.140625 C 1.734375 -0.242188 1.6875 -0.359375 1.6875 -0.484375 L 1.6875 -14.75 C 1.6875 -14.875 1.734375 -14.984375 1.828125 -15.078125 C 1.929688 -15.179688 2.046875 -15.234375 2.171875 -15.234375 L 3.859375 -15.234375 C 3.992188 -15.234375 4.109375 -15.179688 4.203125 -15.078125 C 4.296875 -14.984375 4.34375 -14.875 4.34375 -14.75 L 4.34375 -0.484375 C 4.34375 -0.359375 4.296875 -0.242188 4.203125 -0.140625 C 4.109375 -0.046875 3.992188 0 3.859375 0 Z M 2.171875 0 "/></g></g></g><g fill="#ffffff" fill-opacity="1"><g transform="translate(263.472908, 212.750494)"><g><path d="M 5.53125 0 C 4.644531 0 3.847656 -0.203125 3.140625 -0.609375 C 2.429688 -1.023438 1.867188 -1.582031 1.453125 -2.28125 C 1.046875 -2.976562 0.84375 -3.769531 0.84375 -4.65625 C 0.84375 -5.539062 1.046875 -6.332031 1.453125 -7.03125 C 1.867188 -7.738281 2.429688 -8.296875 3.140625 -8.703125 C 3.847656 -9.109375 4.644531 -9.3125 5.53125 -9.3125 L 10.859375 -9.3125 C 11.003906 -9.3125 11.128906 -9.359375 11.234375 -9.453125 C 11.335938 -9.554688 11.382812 -9.6875 11.375 -9.84375 C 11.289062 -10.75 10.988281 -11.429688 10.46875 -11.890625 C 9.957031 -12.347656 9.304688 -12.578125 8.515625 -12.578125 L 6.296875 -12.578125 C 5.691406 -12.578125 5.15625 -12.421875 4.6875 -12.109375 C 4.21875 -11.804688 3.867188 -11.40625 3.640625 -10.90625 C 3.566406 -10.71875 3.429688 -10.625 3.234375 -10.625 L 1.46875 -10.625 C 1.3125 -10.625 1.175781 -10.6875 1.0625 -10.8125 C 0.945312 -10.945312 0.914062 -11.09375 0.96875 -11.25 C 1.269531 -12.4375 1.898438 -13.394531 2.859375 -14.125 C 3.816406 -14.863281 4.960938 -15.234375 6.296875 -15.234375 L 8.515625 -15.234375 C 9.597656 -15.234375 10.550781 -14.992188 11.375 -14.515625 C 12.207031 -14.046875 12.859375 -13.394531 13.328125 -12.5625 C 13.804688 -11.738281 14.046875 -10.785156 14.046875 -9.703125 L 14.046875 -0.484375 C 14.046875 -0.359375 14 -0.242188 13.90625 -0.140625 C 13.8125 -0.046875 13.695312 0 13.5625 0 L 11.875 0 C 11.75 0 11.632812 -0.046875 11.53125 -0.140625 C 11.4375 -0.242188 11.390625 -0.359375 11.390625 -0.484375 C 11.390625 -0.722656 11.300781 -0.84375 11.125 -0.84375 C 11.0625 -0.84375 10.984375 -0.816406 10.890625 -0.765625 C 9.953125 -0.253906 8.878906 0 7.671875 0 Z M 5.53125 -2.65625 L 7.671875 -2.65625 C 8.398438 -2.65625 9.039062 -2.8125 9.59375 -3.125 C 10.144531 -3.4375 10.582031 -3.875 10.90625 -4.4375 C 11.226562 -5 11.390625 -5.632812 11.390625 -6.34375 C 11.390625 -6.425781 11.34375 -6.5 11.25 -6.5625 C 11.15625 -6.625 11.039062 -6.65625 10.90625 -6.65625 L 5.53125 -6.65625 C 4.9375 -6.65625 4.445312 -6.46875 4.0625 -6.09375 C 3.6875 -5.726562 3.5 -5.25 3.5 -4.65625 C 3.5 -4.0625 3.6875 -3.578125 4.0625 -3.203125 C 4.445312 -2.835938 4.9375 -2.65625 5.53125 -2.65625 Z M 5.53125 -2.65625 "/></g></g></g><g fill="#ffffff" fill-opacity="1"><g transform="translate(278.72977, 212.750494)"><g><path d="M 5 0 C 4.195312 0 3.46875 -0.179688 2.8125 -0.546875 C 2.15625 -0.921875 1.640625 -1.429688 1.265625 -2.078125 C 0.898438 -2.734375 0.71875 -3.460938 0.71875 -4.265625 L 0.71875 -4.75 C 0.71875 -4.882812 0.765625 -5 0.859375 -5.09375 C 0.960938 -5.1875 1.078125 -5.234375 1.203125 -5.234375 L 2.890625 -5.234375 C 3.023438 -5.234375 3.140625 -5.1875 3.234375 -5.09375 C 3.328125 -5 3.375 -4.882812 3.375 -4.75 L 3.375 -4.265625 C 3.375 -3.773438 3.519531 -3.382812 3.8125 -3.09375 C 4.101562 -2.800781 4.5 -2.65625 5 -2.65625 L 9.65625 -2.65625 C 10.15625 -2.65625 10.550781 -2.769531 10.84375 -3 C 11.132812 -3.238281 11.28125 -3.535156 11.28125 -3.890625 L 11.28125 -4.21875 C 11.28125 -4.59375 11.175781 -4.90625 10.96875 -5.15625 C 10.769531 -5.40625 10.492188 -5.5625 10.140625 -5.625 L 3.9375 -7 C 2.988281 -7.226562 2.210938 -7.707031 1.609375 -8.4375 C 1.015625 -9.164062 0.71875 -10.023438 0.71875 -11.015625 C 0.71875 -11.816406 0.898438 -12.535156 1.265625 -13.171875 C 1.640625 -13.804688 2.15625 -14.304688 2.8125 -14.671875 C 3.46875 -15.046875 4.195312 -15.234375 5 -15.234375 L 9.65625 -15.234375 C 10.476562 -15.234375 11.207031 -15.0625 11.84375 -14.71875 C 12.488281 -14.382812 12.992188 -13.921875 13.359375 -13.328125 C 13.734375 -12.742188 13.921875 -12.082031 13.921875 -11.34375 L 13.921875 -10.234375 C 13.921875 -10.109375 13.875 -9.992188 13.78125 -9.890625 C 13.6875 -9.796875 13.578125 -9.75 13.453125 -9.75 L 11.75 -9.75 C 11.625 -9.75 11.515625 -9.796875 11.421875 -9.890625 C 11.328125 -9.992188 11.28125 -10.109375 11.28125 -10.234375 L 11.28125 -11.34375 C 11.28125 -11.71875 11.132812 -12.015625 10.84375 -12.234375 C 10.550781 -12.460938 10.15625 -12.578125 9.65625 -12.578125 L 5 -12.578125 C 4.507812 -12.578125 4.113281 -12.429688 3.8125 -12.140625 C 3.519531 -11.847656 3.375 -11.472656 3.375 -11.015625 C 3.375 -10.660156 3.472656 -10.359375 3.671875 -10.109375 C 3.878906 -9.859375 4.160156 -9.691406 4.515625 -9.609375 L 10.71875 -8.234375 C 11.664062 -8.023438 12.4375 -7.550781 13.03125 -6.8125 C 13.625 -6.070312 13.921875 -5.207031 13.921875 -4.21875 L 13.921875 -3.890625 C 13.921875 -3.148438 13.734375 -2.484375 13.359375 -1.890625 C 12.992188 -1.304688 12.488281 -0.84375 11.84375 -0.5 C 11.207031 -0.164062 10.476562 0 9.65625 0 Z M 5 0 "/></g></g></g></svg>