<svg xmlns="http://www.w3.org/2000/svg" xmlns:xlink="http://www.w3.org/1999/xlink" width="500" zoomAndPan="magnify" viewBox="0 0 375 374.999991" height="500" preserveAspectRatio="xMidYMid meet" version="1.0"><defs><g/><clipPath id="88d625d818"><path d="M 48.710938 143.859375 L 309.710938 143.859375 L 309.710938 204.609375 L 48.710938 204.609375 Z M 48.710938 143.859375 " clip-rule="nonzero"/></clipPath><clipPath id="dc263ef1bc"><path d="M 45.828125 227.121094 L 334.578125 227.121094 L 334.578125 228.621094 L 45.828125 228.621094 Z M 45.828125 227.121094 " clip-rule="nonzero"/></clipPath><clipPath id="603a00d5be"><path d="M 314.636719 184.007812 L 334.886719 184.007812 L 334.886719 227.507812 L 314.636719 227.507812 Z M 314.636719 184.007812 " clip-rule="nonzero"/></clipPath></defs><rect x="-37.5" width="450" fill="#ffffff" y="-37.499999" height="449.999989" fill-opacity="1"/><rect x="-37.5" width="450" fill="#000000" y="-37.499999" height="449.999989" fill-opacity="1"/><g clip-path="url(#88d625d818)"><path fill="#ffffff" d="M 185.648438 172.722656 L 192.277344 164.859375 L 199.410156 172.640625 L 199.410156 188.222656 L 185.0625 188.222656 L 167.242188 172.722656 Z M 199.828125 155.007812 L 199.328125 155.007812 L 199.328125 161.410156 L 122.273438 143.859375 L 48.90625 204.367188 L 59.570312 204.367188 L 125.390625 150.761719 L 192.96875 204.367188 L 237.476562 204.367188 L 219.824219 186.339844 L 250.316406 186.003906 L 266.882812 159.109375 L 284.09375 187.320312 L 284.09375 204.367188 L 309.214844 204.367188 L 271.628906 149.925781 L 209.511719 159.046875 L 209.511719 167.222656 L 205.226562 167.222656 L 205.226562 155.007812 Z M 199.828125 155.007812 " fill-opacity="1" fill-rule="evenodd"/></g><path fill="#ffffff" d="M 113.53125 175.421875 L 124.179688 175.421875 L 124.179688 185.753906 L 113.53125 185.753906 Z M 127.878906 175.421875 L 138.527344 175.421875 L 138.527344 185.753906 L 127.878906 185.753906 Z M 138.527344 189.457031 L 138.527344 199.765625 L 127.878906 199.765625 L 127.878906 189.457031 Z M 124.179688 199.765625 L 113.53125 199.765625 L 113.53125 189.457031 L 124.179688 189.457031 Z M 124.179688 199.765625 " fill-opacity="1" fill-rule="evenodd"/><path fill="#ffffff" d="M 187.886719 174.0625 L 191.398438 174.0625 L 191.398438 177.472656 L 187.886719 177.472656 Z M 192.613281 174.0625 L 196.125 174.0625 L 196.125 177.472656 L 192.613281 177.472656 Z M 196.125 178.683594 L 196.125 182.074219 L 192.613281 182.074219 L 192.613281 178.683594 Z M 191.398438 182.074219 L 187.886719 182.074219 L 187.886719 178.683594 L 191.398438 178.683594 Z M 191.398438 182.074219 " fill-opacity="1" fill-rule="evenodd"/><path fill="#ffffff" d="M 260.023438 186.839844 L 266.128906 186.839844 L 266.128906 192.78125 L 260.023438 192.78125 Z M 268.242188 186.839844 L 274.371094 186.839844 L 274.371094 192.78125 L 268.242188 192.78125 Z M 274.371094 194.894531 L 274.371094 200.8125 L 268.242188 200.8125 L 268.242188 194.894531 Z M 266.128906 200.8125 L 260.023438 200.8125 L 260.023438 194.894531 L 266.128906 194.894531 Z M 266.128906 200.8125 " fill-opacity="1" fill-rule="evenodd"/><g fill="#fffff6" fill-opacity="1"><g transform="translate(45.128632, 223.789322)"><g><path d="M 8.3125 0 L 5.984375 0 L 5.59375 -2.671875 L 2.75 -2.671875 L 2.359375 0 L 0.234375 0 L 2.578125 -14.703125 L 5.96875 -14.703125 Z M 3.046875 -4.65625 L 5.265625 -4.65625 L 4.15625 -12.09375 Z M 3.046875 -4.65625 "/></g></g></g><g fill="#fffff6" fill-opacity="1"><g transform="translate(57.303854, 223.789322)"><g><path d="M 5.671875 0 C 5.640625 -0.09375 5.609375 -0.179688 5.578125 -0.265625 C 5.554688 -0.359375 5.535156 -0.46875 5.515625 -0.59375 C 5.492188 -0.71875 5.476562 -0.875 5.46875 -1.0625 C 5.457031 -1.257812 5.453125 -1.507812 5.453125 -1.8125 L 5.453125 -4.109375 C 5.453125 -4.796875 5.332031 -5.28125 5.09375 -5.5625 C 4.863281 -5.84375 4.484375 -5.984375 3.953125 -5.984375 L 3.15625 -5.984375 L 3.15625 0 L 0.84375 0 L 0.84375 -14.703125 L 4.328125 -14.703125 C 5.523438 -14.703125 6.394531 -14.421875 6.9375 -13.859375 C 7.476562 -13.296875 7.75 -12.445312 7.75 -11.3125 L 7.75 -10.15625 C 7.75 -8.644531 7.242188 -7.65625 6.234375 -7.1875 C 6.828125 -6.945312 7.226562 -6.554688 7.4375 -6.015625 C 7.65625 -5.472656 7.765625 -4.816406 7.765625 -4.046875 L 7.765625 -1.78125 C 7.765625 -1.414062 7.78125 -1.097656 7.8125 -0.828125 C 7.84375 -0.554688 7.910156 -0.28125 8.015625 0 Z M 3.15625 -12.59375 L 3.15625 -8.078125 L 4.046875 -8.078125 C 4.484375 -8.078125 4.820312 -8.1875 5.0625 -8.40625 C 5.3125 -8.632812 5.4375 -9.046875 5.4375 -9.640625 L 5.4375 -11.09375 C 5.4375 -11.625 5.34375 -12.003906 5.15625 -12.234375 C 4.96875 -12.472656 4.671875 -12.59375 4.265625 -12.59375 Z M 3.15625 -12.59375 "/></g></g></g><g fill="#fffff6" fill-opacity="1"><g transform="translate(69.374135, 223.789322)"><g><path d="M 0.65625 -11.171875 C 0.65625 -12.359375 0.953125 -13.269531 1.546875 -13.90625 C 2.148438 -14.550781 3.019531 -14.875 4.15625 -14.875 C 5.289062 -14.875 6.160156 -14.550781 6.765625 -13.90625 C 7.367188 -13.269531 7.671875 -12.359375 7.671875 -11.171875 L 7.671875 -3.53125 C 7.671875 -2.695312 7.519531 -2.007812 7.21875 -1.46875 C 7.28125 -1.332031 7.351562 -1.242188 7.4375 -1.203125 C 7.53125 -1.171875 7.675781 -1.15625 7.875 -1.15625 L 8.078125 -1.15625 L 8.078125 0.90625 L 7.765625 0.90625 C 7.253906 0.90625 6.832031 0.816406 6.5 0.640625 C 6.164062 0.460938 5.925781 0.210938 5.78125 -0.109375 C 5.539062 -0.0234375 5.285156 0.0390625 5.015625 0.09375 C 4.753906 0.144531 4.46875 0.171875 4.15625 0.171875 C 3.019531 0.171875 2.148438 -0.144531 1.546875 -0.78125 C 0.953125 -1.425781 0.65625 -2.34375 0.65625 -3.53125 Z M 2.96875 -3.375 C 2.96875 -2.84375 3.070312 -2.46875 3.28125 -2.25 C 3.5 -2.039062 3.789062 -1.9375 4.15625 -1.9375 C 4.519531 -1.9375 4.8125 -2.039062 5.03125 -2.25 C 5.25 -2.46875 5.359375 -2.84375 5.359375 -3.375 L 5.359375 -11.3125 C 5.359375 -11.84375 5.25 -12.21875 5.03125 -12.4375 C 4.8125 -12.65625 4.519531 -12.765625 4.15625 -12.765625 C 3.789062 -12.765625 3.5 -12.65625 3.28125 -12.4375 C 3.070312 -12.21875 2.96875 -11.84375 2.96875 -11.3125 Z M 2.96875 -3.375 "/></g></g></g><g fill="#fffff6" fill-opacity="1"><g transform="translate(81.318484, 223.789322)"><g><path d="M 3.046875 -14.703125 L 3.046875 -3.359375 C 3.046875 -2.828125 3.15625 -2.457031 3.375 -2.25 C 3.59375 -2.039062 3.878906 -1.9375 4.234375 -1.9375 C 4.597656 -1.9375 4.890625 -2.039062 5.109375 -2.25 C 5.328125 -2.457031 5.4375 -2.828125 5.4375 -3.359375 L 5.4375 -14.703125 L 7.625 -14.703125 L 7.625 -3.5 C 7.625 -2.3125 7.332031 -1.398438 6.75 -0.765625 C 6.164062 -0.128906 5.304688 0.1875 4.171875 0.1875 C 3.046875 0.1875 2.191406 -0.128906 1.609375 -0.765625 C 1.023438 -1.398438 0.734375 -2.3125 0.734375 -3.5 L 0.734375 -14.703125 Z M 3.046875 -14.703125 "/></g></g></g><g fill="#fffff6" fill-opacity="1"><g transform="translate(93.304811, 223.789322)"><g><path d="M 0.84375 -14.703125 L 3.15625 -14.703125 L 3.15625 0 L 0.84375 0 Z M 0.84375 -14.703125 "/></g></g></g><g fill="#fffff6" fill-opacity="1"><g transform="translate(100.925568, 223.789322)"><g><path d="M 0.171875 -14.703125 L 7.3125 -14.703125 L 7.3125 -12.59375 L 4.890625 -12.59375 L 4.890625 0 L 2.578125 0 L 2.578125 -12.59375 L 0.171875 -12.59375 Z M 0.171875 -14.703125 "/></g></g></g><g fill="#fffff6" fill-opacity="1"><g transform="translate(112.030376, 223.789322)"><g><path d="M 3.15625 -8.5 L 6.328125 -8.5 L 6.328125 -6.40625 L 3.15625 -6.40625 L 3.15625 -2.09375 L 7.140625 -2.09375 L 7.140625 0 L 0.84375 0 L 0.84375 -14.703125 L 7.140625 -14.703125 L 7.140625 -12.59375 L 3.15625 -12.59375 Z M 3.15625 -8.5 "/></g></g></g><g fill="#fffff6" fill-opacity="1"><g transform="translate(123.387046, 223.789322)"><g><path d="M 7.53125 -5.484375 L 7.53125 -3.53125 C 7.53125 -2.34375 7.238281 -1.425781 6.65625 -0.78125 C 6.082031 -0.144531 5.226562 0.171875 4.09375 0.171875 C 2.957031 0.171875 2.097656 -0.144531 1.515625 -0.78125 C 0.941406 -1.425781 0.65625 -2.34375 0.65625 -3.53125 L 0.65625 -11.171875 C 0.65625 -12.359375 0.941406 -13.269531 1.515625 -13.90625 C 2.097656 -14.550781 2.957031 -14.875 4.09375 -14.875 C 5.226562 -14.875 6.082031 -14.550781 6.65625 -13.90625 C 7.238281 -13.269531 7.53125 -12.359375 7.53125 -11.171875 L 7.53125 -9.75 L 5.359375 -9.75 L 5.359375 -11.3125 C 5.359375 -11.84375 5.25 -12.21875 5.03125 -12.4375 C 4.8125 -12.65625 4.519531 -12.765625 4.15625 -12.765625 C 3.789062 -12.765625 3.5 -12.65625 3.28125 -12.4375 C 3.070312 -12.21875 2.96875 -11.84375 2.96875 -11.3125 L 2.96875 -3.375 C 2.96875 -2.84375 3.070312 -2.472656 3.28125 -2.265625 C 3.5 -2.054688 3.789062 -1.953125 4.15625 -1.953125 C 4.519531 -1.953125 4.8125 -2.054688 5.03125 -2.265625 C 5.25 -2.472656 5.359375 -2.84375 5.359375 -3.375 L 5.359375 -5.484375 Z M 7.53125 -5.484375 "/></g></g></g><g fill="#fffff6" fill-opacity="1"><g transform="translate(135.121508, 223.789322)"><g><path d="M 0.171875 -14.703125 L 7.3125 -14.703125 L 7.3125 -12.59375 L 4.890625 -12.59375 L 4.890625 0 L 2.578125 0 L 2.578125 -12.59375 L 0.171875 -12.59375 Z M 0.171875 -14.703125 "/></g></g></g><g fill="#fffff6" fill-opacity="1"><g transform="translate(146.226316, 223.789322)"><g><path d="M 2.96875 -3.375 C 2.96875 -2.84375 3.070312 -2.46875 3.28125 -2.25 C 3.5 -2.039062 3.789062 -1.9375 4.15625 -1.9375 C 4.519531 -1.9375 4.8125 -2.039062 5.03125 -2.25 C 5.25 -2.46875 5.359375 -2.84375 5.359375 -3.375 L 5.359375 -11.3125 C 5.359375 -11.84375 5.25 -12.21875 5.03125 -12.4375 C 4.8125 -12.65625 4.519531 -12.765625 4.15625 -12.765625 C 3.789062 -12.765625 3.5 -12.65625 3.28125 -12.4375 C 3.070312 -12.21875 2.96875 -11.84375 2.96875 -11.3125 Z M 0.65625 -11.171875 C 0.65625 -12.359375 0.953125 -13.269531 1.546875 -13.90625 C 2.148438 -14.550781 3.019531 -14.875 4.15625 -14.875 C 5.289062 -14.875 6.160156 -14.550781 6.765625 -13.90625 C 7.367188 -13.269531 7.671875 -12.359375 7.671875 -11.171875 L 7.671875 -3.53125 C 7.671875 -2.34375 7.367188 -1.425781 6.765625 -0.78125 C 6.160156 -0.144531 5.289062 0.171875 4.15625 0.171875 C 3.019531 0.171875 2.148438 -0.144531 1.546875 -0.78125 C 0.953125 -1.425781 0.65625 -2.34375 0.65625 -3.53125 Z M 0.65625 -11.171875 "/></g></g></g><g fill="#fffff6" fill-opacity="1"><g transform="translate(158.170662, 223.789322)"><g><path d="M 0.546875 -11.171875 C 0.546875 -12.359375 0.828125 -13.269531 1.390625 -13.90625 C 1.960938 -14.550781 2.816406 -14.875 3.953125 -14.875 C 5.085938 -14.875 5.9375 -14.550781 6.5 -13.90625 C 7.0625 -13.269531 7.34375 -12.359375 7.34375 -11.171875 L 7.34375 -10.703125 L 5.171875 -10.703125 L 5.171875 -11.3125 C 5.171875 -11.84375 5.066406 -12.21875 4.859375 -12.4375 C 4.660156 -12.65625 4.378906 -12.765625 4.015625 -12.765625 C 3.648438 -12.765625 3.363281 -12.65625 3.15625 -12.4375 C 2.957031 -12.21875 2.859375 -11.84375 2.859375 -11.3125 C 2.859375 -10.8125 2.96875 -10.367188 3.1875 -9.984375 C 3.414062 -9.597656 3.695312 -9.234375 4.03125 -8.890625 C 4.363281 -8.546875 4.722656 -8.203125 5.109375 -7.859375 C 5.492188 -7.515625 5.851562 -7.140625 6.1875 -6.734375 C 6.53125 -6.328125 6.8125 -5.863281 7.03125 -5.34375 C 7.257812 -4.832031 7.375 -4.226562 7.375 -3.53125 C 7.375 -2.34375 7.082031 -1.425781 6.5 -0.78125 C 5.914062 -0.144531 5.054688 0.171875 3.921875 0.171875 C 2.785156 0.171875 1.925781 -0.144531 1.34375 -0.78125 C 0.769531 -1.425781 0.484375 -2.34375 0.484375 -3.53125 L 0.484375 -4.4375 L 2.671875 -4.4375 L 2.671875 -3.375 C 2.671875 -2.84375 2.773438 -2.472656 2.984375 -2.265625 C 3.203125 -2.054688 3.492188 -1.953125 3.859375 -1.953125 C 4.222656 -1.953125 4.515625 -2.054688 4.734375 -2.265625 C 4.953125 -2.472656 5.0625 -2.84375 5.0625 -3.375 C 5.0625 -3.882812 4.945312 -4.332031 4.71875 -4.71875 C 4.5 -5.101562 4.21875 -5.46875 3.875 -5.8125 C 3.539062 -6.15625 3.179688 -6.492188 2.796875 -6.828125 C 2.410156 -7.171875 2.050781 -7.546875 1.71875 -7.953125 C 1.382812 -8.359375 1.101562 -8.820312 0.875 -9.34375 C 0.65625 -9.863281 0.546875 -10.472656 0.546875 -11.171875 Z M 0.546875 -11.171875 "/></g></g></g><g fill="#fffff6" fill-opacity="1"><g transform="translate(169.653263, 223.789322)"><g/></g></g><g fill="#fffff6" fill-opacity="1"><g transform="translate(176.539436, 223.789322)"><g><path d="M 4.328125 -2.703125 L 6.09375 -14.703125 L 8.21875 -14.703125 L 5.9375 0 L 2.5 0 L 0.234375 -14.703125 L 2.5625 -14.703125 Z M 4.328125 -2.703125 "/></g></g></g><g fill="#fffff6" fill-opacity="1"><g transform="translate(188.609713, 223.789322)"><g><path d="M 8.3125 0 L 5.984375 0 L 5.59375 -2.671875 L 2.75 -2.671875 L 2.359375 0 L 0.234375 0 L 2.578125 -14.703125 L 5.96875 -14.703125 Z M 3.046875 -4.65625 L 5.265625 -4.65625 L 4.15625 -12.09375 Z M 3.046875 -4.65625 "/></g></g></g><g fill="#fffff6" fill-opacity="1"><g transform="translate(200.784933, 223.789322)"><g><path d="M 2.890625 -10.640625 L 2.890625 0 L 0.8125 0 L 0.8125 -14.703125 L 3.71875 -14.703125 L 6.09375 -5.90625 L 6.09375 -14.703125 L 8.140625 -14.703125 L 8.140625 0 L 5.78125 0 Z M 2.890625 -10.640625 "/></g></g></g><g fill="#fffff6" fill-opacity="1"><g transform="translate(213.37991, 223.789322)"><g><path d="M 0.84375 -14.703125 L 4.5 -14.703125 C 5.65625 -14.703125 6.515625 -14.394531 7.078125 -13.78125 C 7.648438 -13.164062 7.9375 -12.257812 7.9375 -11.0625 L 7.9375 -3.640625 C 7.9375 -2.441406 7.648438 -1.535156 7.078125 -0.921875 C 6.515625 -0.304688 5.65625 0 4.5 0 L 0.84375 0 Z M 3.15625 -12.59375 L 3.15625 -2.09375 L 4.453125 -2.09375 C 4.816406 -2.09375 5.101562 -2.195312 5.3125 -2.40625 C 5.519531 -2.625 5.625 -3 5.625 -3.53125 L 5.625 -11.171875 C 5.625 -11.703125 5.519531 -12.070312 5.3125 -12.28125 C 5.101562 -12.488281 4.816406 -12.59375 4.453125 -12.59375 Z M 3.15625 -12.59375 "/></g></g></g><g fill="#fffff6" fill-opacity="1"><g transform="translate(225.576118, 223.789322)"><g><path d="M 0.84375 -14.703125 L 3.15625 -14.703125 L 3.15625 0 L 0.84375 0 Z M 0.84375 -14.703125 "/></g></g></g><g fill="#fffff6" fill-opacity="1"><g transform="translate(233.196875, 223.789322)"><g><path d="M 3.15625 -8.5 L 6.328125 -8.5 L 6.328125 -6.40625 L 3.15625 -6.40625 L 3.15625 -2.09375 L 7.140625 -2.09375 L 7.140625 0 L 0.84375 0 L 0.84375 -14.703125 L 7.140625 -14.703125 L 7.140625 -12.59375 L 3.15625 -12.59375 Z M 3.15625 -8.5 "/></g></g></g><g fill="#fffff6" fill-opacity="1"><g transform="translate(244.553545, 223.789322)"><g><path d="M 5.671875 0 C 5.640625 -0.09375 5.609375 -0.179688 5.578125 -0.265625 C 5.554688 -0.359375 5.535156 -0.46875 5.515625 -0.59375 C 5.492188 -0.71875 5.476562 -0.875 5.46875 -1.0625 C 5.457031 -1.257812 5.453125 -1.507812 5.453125 -1.8125 L 5.453125 -4.109375 C 5.453125 -4.796875 5.332031 -5.28125 5.09375 -5.5625 C 4.863281 -5.84375 4.484375 -5.984375 3.953125 -5.984375 L 3.15625 -5.984375 L 3.15625 0 L 0.84375 0 L 0.84375 -14.703125 L 4.328125 -14.703125 C 5.523438 -14.703125 6.394531 -14.421875 6.9375 -13.859375 C 7.476562 -13.296875 7.75 -12.445312 7.75 -11.3125 L 7.75 -10.15625 C 7.75 -8.644531 7.242188 -7.65625 6.234375 -7.1875 C 6.828125 -6.945312 7.226562 -6.554688 7.4375 -6.015625 C 7.65625 -5.472656 7.765625 -4.816406 7.765625 -4.046875 L 7.765625 -1.78125 C 7.765625 -1.414062 7.78125 -1.097656 7.8125 -0.828125 C 7.84375 -0.554688 7.910156 -0.28125 8.015625 0 Z M 3.15625 -12.59375 L 3.15625 -8.078125 L 4.046875 -8.078125 C 4.484375 -8.078125 4.820312 -8.1875 5.0625 -8.40625 C 5.3125 -8.632812 5.4375 -9.046875 5.4375 -9.640625 L 5.4375 -11.09375 C 5.4375 -11.625 5.34375 -12.003906 5.15625 -12.234375 C 4.96875 -12.472656 4.671875 -12.59375 4.265625 -12.59375 Z M 3.15625 -12.59375 "/></g></g></g><g fill="#fffff6" fill-opacity="1"><g transform="translate(256.623834, 223.789322)"><g><path d="M 3.15625 -8.5 L 6.328125 -8.5 L 6.328125 -6.40625 L 3.15625 -6.40625 L 3.15625 -2.09375 L 7.140625 -2.09375 L 7.140625 0 L 0.84375 0 L 0.84375 -14.703125 L 7.140625 -14.703125 L 7.140625 -12.59375 L 3.15625 -12.59375 Z M 3.15625 -8.5 "/></g></g></g><g fill="#fffff6" fill-opacity="1"><g transform="translate(267.980515, 223.789322)"><g/></g></g><g fill="#fffff6" fill-opacity="1"><g transform="translate(274.866699, 223.789322)"><g><path d="M 0.84375 -14.703125 L 3.15625 -14.703125 L 3.15625 0 L 0.84375 0 Z M 0.84375 -14.703125 "/></g></g></g><g fill="#fffff6" fill-opacity="1"><g transform="translate(282.487457, 223.789322)"><g><path d="M 2.890625 -10.640625 L 2.890625 0 L 0.8125 0 L 0.8125 -14.703125 L 3.71875 -14.703125 L 6.09375 -5.90625 L 6.09375 -14.703125 L 8.140625 -14.703125 L 8.140625 0 L 5.78125 0 Z M 2.890625 -10.640625 "/></g></g></g><g fill="#fffff6" fill-opacity="1"><g transform="translate(295.082434, 223.789322)"><g><path d="M 7.53125 -5.484375 L 7.53125 -3.53125 C 7.53125 -2.34375 7.238281 -1.425781 6.65625 -0.78125 C 6.082031 -0.144531 5.226562 0.171875 4.09375 0.171875 C 2.957031 0.171875 2.097656 -0.144531 1.515625 -0.78125 C 0.941406 -1.425781 0.65625 -2.34375 0.65625 -3.53125 L 0.65625 -11.171875 C 0.65625 -12.359375 0.941406 -13.269531 1.515625 -13.90625 C 2.097656 -14.550781 2.957031 -14.875 4.09375 -14.875 C 5.226562 -14.875 6.082031 -14.550781 6.65625 -13.90625 C 7.238281 -13.269531 7.53125 -12.359375 7.53125 -11.171875 L 7.53125 -9.75 L 5.359375 -9.75 L 5.359375 -11.3125 C 5.359375 -11.84375 5.25 -12.21875 5.03125 -12.4375 C 4.8125 -12.65625 4.519531 -12.765625 4.15625 -12.765625 C 3.789062 -12.765625 3.5 -12.65625 3.28125 -12.4375 C 3.070312 -12.21875 2.96875 -11.84375 2.96875 -11.3125 L 2.96875 -3.375 C 2.96875 -2.84375 3.070312 -2.472656 3.28125 -2.265625 C 3.5 -2.054688 3.789062 -1.953125 4.15625 -1.953125 C 4.519531 -1.953125 4.8125 -2.054688 5.03125 -2.265625 C 5.25 -2.472656 5.359375 -2.84375 5.359375 -3.375 L 5.359375 -5.484375 Z M 7.53125 -5.484375 "/></g></g></g><g fill="#fffff6" fill-opacity="1"><g transform="translate(306.816907, 223.789322)"><g><path d="M 3.0625 -2.21875 L 3.0625 0 L 0.84375 0 L 0.84375 -2.21875 Z M 3.0625 -2.21875 "/></g></g></g><g clip-path="url(#dc263ef1bc)"><path fill="#ffffff" d="M 45.828125 227.179688 L 334.753906 227.179688 L 334.753906 228.503906 L 45.828125 228.503906 Z M 45.828125 227.179688 " fill-opacity="1" fill-rule="nonzero"/></g><g clip-path="url(#603a00d5be)"><path fill="#ffffff" d="M 322.976562 227.847656 C 323.277344 227.128906 323.359375 221.257812 323.050781 221.066406 C 322.863281 220.953125 322.863281 220.917969 323.050781 220.851562 C 323.167969 220.8125 323.222656 220.726562 323.164062 220.660156 C 323.109375 220.601562 322.871094 220.734375 322.632812 220.953125 C 322.355469 221.203125 322.09375 221.316406 321.925781 221.253906 C 321.472656 221.078125 320.535156 220.511719 320.417969 220.332031 C 320.273438 220.125 317.996094 220.09375 317.851562 220.304688 C 317.683594 220.546875 316.886719 220.257812 316.796875 219.914062 C 316.746094 219.742188 316.609375 219.605469 316.484375 219.605469 C 316.359375 219.605469 315.964844 219.410156 315.609375 219.167969 C 315.003906 218.769531 314.976562 218.722656 315.238281 218.527344 C 315.496094 218.339844 315.5 218.316406 315.257812 218.316406 C 315.101562 218.316406 314.953125 218.148438 314.902344 217.917969 C 314.855469 217.691406 314.777344 217.320312 314.730469 217.085938 C 314.636719 216.644531 314.730469 216.628906 315.53125 216.957031 C 315.785156 217.0625 315.824219 217.027344 315.746094 216.734375 C 315.644531 216.335938 316.054688 216.238281 316.40625 216.585938 C 316.570312 216.746094 316.652344 216.730469 316.820312 216.507812 C 316.933594 216.351562 317.070312 216.277344 317.125 216.328125 C 317.175781 216.382812 317.441406 216.339844 317.703125 216.234375 C 318.199219 216.023438 318.214844 215.769531 317.769531 215.238281 C 317.570312 215.011719 317.589844 214.964844 317.910156 214.855469 C 318.113281 214.789062 318.335938 214.71875 318.402344 214.695312 C 318.464844 214.675781 318.566406 214.648438 318.628906 214.636719 C 318.679688 214.621094 318.609375 214.480469 318.460938 214.3125 C 318.199219 214.027344 318.203125 214.007812 318.632812 213.925781 C 318.882812 213.878906 319.132812 213.917969 319.195312 214.015625 C 319.332031 214.246094 320.28125 214.308594 320.648438 214.117188 C 320.878906 213.992188 320.972656 214.042969 321.121094 214.367188 C 321.34375 214.855469 321.574219 214.878906 322.082031 214.46875 C 322.355469 214.246094 322.535156 214.207031 322.746094 214.3125 C 323.042969 214.472656 323.15625 214.234375 322.863281 214.050781 C 322.625 213.90625 322.671875 213.488281 322.921875 213.488281 C 323.050781 213.488281 323.238281 213.382812 323.347656 213.25 C 323.515625 213.046875 323.429688 212.957031 322.847656 212.691406 C 322.457031 212.511719 321.992188 212.261719 321.808594 212.121094 C 321.496094 211.894531 321.4375 211.902344 321.074219 212.242188 C 320.859375 212.4375 320.429688 212.628906 320.125 212.660156 C 319.816406 212.691406 319.4375 212.785156 319.285156 212.867188 C 319.105469 212.964844 318.890625 212.957031 318.691406 212.851562 C 318.519531 212.761719 318.167969 212.683594 317.90625 212.683594 C 317.554688 212.683594 317.433594 212.613281 317.453125 212.410156 C 317.464844 212.253906 317.339844 212.105469 317.152344 212.070312 C 316.59375 211.957031 315.949219 211.394531 315.949219 211.023438 C 315.949219 210.828125 316 210.746094 316.066406 210.839844 C 316.199219 211.019531 316.507812 211.046875 316.660156 210.894531 C 316.71875 210.839844 317.058594 210.851562 317.429688 210.917969 C 317.832031 210.996094 318.199219 210.976562 318.363281 210.871094 C 318.621094 210.714844 318.621094 210.667969 318.328125 210.171875 C 318.019531 209.652344 318.019531 209.644531 318.347656 209.316406 C 318.65625 209.007812 319.164062 209.007812 319.164062 209.324219 C 319.164062 209.402344 319.242188 209.46875 319.332031 209.46875 C 319.425781 209.46875 319.683594 209.644531 319.90625 209.867188 C 320.328125 210.296875 321.015625 210.402344 321.152344 210.070312 C 321.210938 209.925781 321.289062 209.949219 321.414062 210.148438 C 321.609375 210.457031 322.140625 210.53125 322.304688 210.265625 C 322.367188 210.164062 322.5 210.160156 322.703125 210.265625 C 322.917969 210.378906 323.023438 210.375 323.078125 210.230469 C 323.125 210.117188 323.175781 210.171875 323.1875 210.351562 C 323.226562 210.929688 323.503906 210.015625 323.605469 208.960938 C 323.695312 208.078125 323.675781 208.015625 323.359375 208.015625 C 323.085938 208.015625 323.035156 208.089844 323.113281 208.398438 C 323.199219 208.714844 323.136719 208.792969 322.792969 208.859375 C 322.566406 208.90625 322.332031 208.871094 322.285156 208.792969 C 322.230469 208.710938 322.101562 208.769531 321.988281 208.925781 C 321.796875 209.179688 321.734375 209.15625 321.199219 208.632812 C 320.878906 208.320312 320.613281 207.992188 320.613281 207.910156 C 320.613281 207.820312 320.507812 207.738281 320.371094 207.726562 C 320.238281 207.707031 320.011719 207.683594 319.867188 207.671875 C 319.71875 207.652344 319.570312 207.511719 319.527344 207.34375 C 319.476562 207.140625 319.320312 207.054688 319.027344 207.082031 C 318.792969 207.097656 318.449219 207.027344 318.257812 206.925781 C 318.074219 206.824219 317.871094 206.789062 317.816406 206.847656 C 317.757812 206.90625 317.492188 206.714844 317.230469 206.429688 C 316.96875 206.144531 316.675781 205.953125 316.59375 206.007812 C 316.503906 206.058594 316.429688 205.996094 316.429688 205.855469 C 316.429688 205.71875 316.144531 205.425781 315.800781 205.210938 C 314.730469 204.539062 314.753906 204.265625 315.839844 204.71875 C 317.058594 205.226562 317.003906 204.855469 315.773438 204.226562 C 314.660156 203.667969 314.761719 203.40625 316.050781 203.507812 C 316.242188 203.519531 316.449219 203.453125 316.507812 203.351562 C 316.582031 203.238281 316.765625 203.320312 317.039062 203.597656 C 317.273438 203.828125 317.578125 203.984375 317.730469 203.941406 C 317.90625 203.898438 318.066406 204.011719 318.179688 204.265625 C 318.28125 204.480469 318.425781 204.617188 318.503906 204.566406 C 318.585938 204.519531 318.6875 204.582031 318.734375 204.707031 C 318.800781 204.878906 318.71875 204.914062 318.417969 204.859375 C 317.953125 204.777344 318.03125 205.039062 318.515625 205.164062 C 318.730469 205.226562 318.859375 205.152344 318.925781 204.945312 C 319.019531 204.65625 319.046875 204.65625 319.457031 204.914062 C 319.695312 205.058594 320.054688 205.363281 320.25 205.578125 C 320.648438 206.019531 320.679688 206.011719 320.839844 205.492188 C 320.9375 205.195312 320.847656 205.082031 320.285156 204.796875 C 319.761719 204.527344 319.660156 204.414062 319.804688 204.238281 C 319.90625 204.121094 320.023438 203.816406 320.066406 203.570312 C 320.113281 203.320312 320.179688 203.089844 320.207031 203.058594 C 320.308594 202.957031 321.085938 203.582031 321.089844 203.769531 C 321.089844 203.863281 321.269531 204.023438 321.484375 204.121094 C 321.789062 204.257812 321.890625 204.253906 321.964844 204.066406 C 322.011719 203.9375 322.207031 203.835938 322.40625 203.835938 C 322.734375 203.835938 322.738281 203.816406 322.488281 203.535156 C 322.339844 203.375 322.273438 203.191406 322.339844 203.128906 C 322.398438 203.066406 322.328125 203.058594 322.179688 203.117188 C 321.988281 203.191406 321.898438 203.140625 321.898438 202.964844 C 321.898438 202.796875 322.082031 202.664062 322.378906 202.605469 C 323.257812 202.425781 322.851562 202.0625 321.777344 202.0625 C 321.0625 202.0625 320.105469 201.734375 320.179688 201.507812 C 320.207031 201.417969 320.136719 201.246094 320.023438 201.125 C 319.90625 201.011719 319.816406 200.683594 319.820312 200.402344 C 319.828125 200.121094 319.867188 199.996094 319.917969 200.136719 C 319.957031 200.265625 320.023438 200.476562 320.066406 200.59375 C 320.113281 200.75 320.28125 200.671875 320.613281 200.3125 C 320.882812 200.039062 321.242188 199.8125 321.421875 199.8125 C 321.59375 199.8125 321.734375 199.707031 321.734375 199.574219 C 321.734375 199.417969 321.648438 199.371094 321.46875 199.441406 C 321.265625 199.519531 321.222656 199.476562 321.304688 199.269531 C 321.371094 199.101562 321.347656 199.03125 321.253906 199.089844 C 321.167969 199.144531 321.027344 199 320.9375 198.773438 C 320.835938 198.503906 320.703125 198.398438 320.535156 198.464844 C 320.398438 198.519531 320.292969 198.476562 320.292969 198.378906 C 320.292969 198.277344 320.148438 198.203125 319.976562 198.203125 C 319.804688 198.203125 319.605469 198.105469 319.535156 197.980469 C 319.460938 197.859375 319.242188 197.683594 319.046875 197.574219 C 318.84375 197.472656 318.679688 197.242188 318.679688 197.0625 C 318.679688 196.792969 318.734375 196.769531 318.992188 196.90625 C 319.164062 197.003906 319.535156 197.074219 319.816406 197.074219 C 320.25 197.074219 320.316406 197.027344 320.246094 196.75 C 320.195312 196.578125 320.234375 196.429688 320.320312 196.429688 C 320.410156 196.429688 320.519531 196.585938 320.566406 196.769531 C 320.636719 197.019531 320.691406 197.050781 320.792969 196.890625 C 320.902344 196.714844 320.992188 196.710938 321.242188 196.871094 C 321.449219 196.996094 321.597656 197.007812 321.664062 196.90625 C 321.71875 196.816406 321.824219 196.789062 321.910156 196.839844 C 321.992188 196.890625 322.058594 196.859375 322.058594 196.761719 C 322.058594 196.519531 322.320312 196.546875 322.59375 196.824219 C 322.722656 196.953125 322.871094 197.015625 322.929688 196.960938 C 322.984375 196.90625 323.023438 196.941406 323.023438 197.050781 C 323.023438 197.152344 323.097656 197.234375 323.1875 197.234375 C 323.425781 197.234375 323.382812 196.972656 323.109375 196.699219 C 322.835938 196.421875 322.464844 195.617188 322.40625 195.160156 C 322.394531 195.074219 322.128906 194.769531 321.820312 194.476562 C 321.4375 194.113281 321.257812 193.804688 321.257812 193.492188 C 321.257812 193.046875 321.257812 193.046875 321.671875 193.3125 L 322.078125 193.582031 L 321.96875 193.117188 C 321.902344 192.859375 321.796875 192.53125 321.71875 192.382812 C 321.609375 192.175781 321.683594 192.109375 322.0625 192.050781 C 322.328125 192.011719 322.542969 192.039062 322.542969 192.109375 C 322.542969 192.179688 322.75 192.347656 323.007812 192.480469 C 323.414062 192.6875 323.503906 192.6875 323.667969 192.492188 C 323.957031 192.144531 323.742188 191.953125 322.9375 191.835938 C 322.535156 191.773438 322.238281 191.691406 322.277344 191.65625 C 322.316406 191.613281 322.214844 191.207031 322.039062 190.75 C 321.675781 189.738281 321.675781 189.835938 322.050781 189.835938 C 322.445312 189.835938 323.507812 190.324219 323.507812 190.503906 C 323.507812 190.582031 323.578125 190.636719 323.664062 190.636719 C 323.765625 190.636719 323.753906 190.480469 323.640625 190.234375 C 323.539062 190.015625 323.378906 189.828125 323.28125 189.828125 C 323.1875 189.828125 323.210938 189.765625 323.335938 189.6875 C 323.460938 189.601562 323.675781 189.585938 323.820312 189.632812 C 323.957031 189.6875 323.835938 189.476562 323.554688 189.179688 C 322.632812 188.199219 322.386719 187.867188 322.480469 187.710938 C 322.535156 187.628906 322.441406 187.402344 322.277344 187.210938 C 322.117188 187.011719 322.046875 186.910156 322.128906 186.976562 C 322.207031 187.042969 322.375 187.007812 322.5 186.90625 C 322.679688 186.757812 322.757812 186.761719 322.859375 186.929688 C 322.941406 187.054688 323.164062 187.109375 323.414062 187.0625 C 323.640625 187.019531 323.832031 187.042969 323.832031 187.121094 C 323.832031 187.199219 323.894531 187.257812 323.984375 187.257812 C 324.070312 187.257812 324.160156 186.910156 324.183594 186.492188 C 324.222656 185.902344 324.289062 185.734375 324.488281 185.773438 C 324.761719 185.8125 324.820312 185.609375 324.828125 184.632812 C 324.828125 184.046875 324.839844 184.03125 325.167969 184.25 C 325.441406 184.429688 325.5 184.609375 325.464844 185.144531 C 325.425781 185.722656 325.460938 185.808594 325.753906 185.808594 C 325.929688 185.808594 326.085938 185.886719 326.085938 185.96875 C 326.085938 186.058594 326.007812 186.128906 325.914062 186.128906 C 325.816406 186.128906 325.789062 186.203125 325.839844 186.292969 C 325.894531 186.378906 325.835938 186.410156 325.691406 186.355469 C 325.5 186.277344 325.441406 186.367188 325.441406 186.695312 C 325.441406 187.101562 325.476562 187.132812 325.949219 187.035156 C 326.230469 186.976562 326.558594 186.847656 326.6875 186.738281 C 326.8125 186.636719 327.023438 186.535156 327.148438 186.519531 C 327.523438 186.457031 327.398438 186.894531 326.933594 187.226562 C 326.585938 187.484375 326.535156 187.59375 326.6875 187.769531 C 326.890625 188.015625 326.71875 188.230469 325.855469 188.792969 C 325.347656 189.125 325.441406 189.328125 326.082031 189.285156 C 326.460938 189.257812 326.5625 189.316406 326.5625 189.550781 C 326.5625 189.714844 326.640625 189.804688 326.726562 189.753906 C 326.992188 189.585938 327.28125 189.847656 327.027344 190.027344 C 326.878906 190.128906 327.011719 190.144531 327.410156 190.082031 C 327.882812 190.003906 328.011719 190.03125 328.011719 190.21875 C 328.011719 190.347656 327.875 190.496094 327.710938 190.550781 C 327.519531 190.609375 327.429688 190.753906 327.476562 190.925781 C 327.53125 191.136719 327.332031 191.304688 326.664062 191.597656 C 326.015625 191.882812 325.753906 192.089844 325.679688 192.394531 C 325.621094 192.632812 325.652344 192.824219 325.753906 192.859375 C 326.007812 192.945312 325.953125 193.214844 325.679688 193.214844 C 325.550781 193.214844 325.441406 193.285156 325.441406 193.375 C 325.441406 193.46875 325.261719 193.625 325.042969 193.71875 C 324.25 194.085938 325.035156 194.316406 326.234375 194.070312 C 326.570312 194.007812 326.820312 193.828125 326.933594 193.582031 C 327.066406 193.285156 327.195312 193.214844 327.46875 193.285156 C 327.714844 193.34375 327.984375 193.242188 328.324219 192.957031 C 328.847656 192.515625 329.015625 192.730469 328.550781 193.242188 C 328.394531 193.414062 328.359375 193.535156 328.472656 193.535156 C 328.867188 193.535156 328.632812 193.839844 328.109375 194.011719 C 327.804688 194.113281 327.476562 194.292969 327.375 194.414062 C 327.28125 194.53125 327.078125 194.597656 326.921875 194.554688 C 326.617188 194.476562 325.542969 195.195312 325.710938 195.359375 C 325.769531 195.421875 325.703125 195.460938 325.566406 195.460938 C 325.429688 195.460938 325.238281 195.5625 325.136719 195.683594 C 325 195.84375 325.03125 195.964844 325.257812 196.167969 C 325.5 196.394531 325.585938 196.398438 325.734375 196.226562 C 325.847656 196.089844 326.207031 196.023438 326.753906 196.054688 C 327.535156 196.089844 328.496094 195.753906 328.496094 195.449219 C 328.496094 195.390625 328.695312 195.289062 328.9375 195.230469 C 329.183594 195.171875 329.429688 195.03125 329.492188 194.929688 C 329.554688 194.835938 329.660156 194.804688 329.730469 194.871094 C 329.796875 194.945312 329.769531 195.140625 329.660156 195.308594 C 329.402344 195.71875 329.410156 195.785156 329.71875 195.785156 C 330.042969 195.785156 329.941406 196.113281 329.542969 196.339844 C 329.375 196.433594 329.050781 196.675781 328.832031 196.871094 C 328.605469 197.074219 328.292969 197.234375 328.140625 197.234375 C 327.984375 197.234375 327.710938 197.382812 327.53125 197.558594 C 327.316406 197.773438 327.082031 197.855469 326.84375 197.796875 C 326.5625 197.722656 326.421875 197.8125 326.195312 198.191406 C 325.984375 198.546875 325.800781 198.671875 325.511719 198.648438 C 325.257812 198.625 325.121094 198.511719 325.121094 198.339844 C 325.121094 198.183594 325.054688 198.015625 324.96875 197.96875 C 324.894531 197.921875 324.863281 197.734375 324.910156 197.558594 C 324.96875 197.332031 324.917969 197.234375 324.726562 197.234375 C 324.503906 197.234375 324.480469 197.335938 324.570312 197.835938 C 324.636719 198.171875 324.804688 198.53125 324.941406 198.644531 C 325.171875 198.820312 325.160156 198.871094 324.839844 199.125 C 324.425781 199.453125 324.261719 200.242188 324.617188 200.164062 C 324.742188 200.136719 324.90625 200.210938 324.980469 200.324219 C 325.078125 200.476562 325.121094 200.445312 325.136719 200.210938 C 325.148438 199.996094 325.191406 200.050781 325.257812 200.355469 C 325.410156 201.066406 326.042969 201.09375 326.59375 200.421875 C 327.003906 199.921875 327.035156 199.90625 327.328125 200.175781 C 327.5 200.332031 327.699219 200.402344 327.769531 200.332031 C 327.847656 200.265625 327.839844 200.320312 327.761719 200.457031 C 327.558594 200.796875 327.535156 201.09375 327.710938 201.09375 C 327.785156 201.09375 327.851562 201.03125 327.851562 200.945312 C 327.851562 200.855469 328.039062 200.613281 328.257812 200.386719 C 328.480469 200.164062 328.65625 199.871094 328.65625 199.734375 C 328.65625 199.53125 328.710938 199.519531 328.96875 199.679688 C 329.214844 199.832031 329.332031 199.824219 329.558594 199.640625 C 329.816406 199.429688 329.832031 199.4375 329.742188 199.6875 C 329.683594 199.84375 329.742188 200.070312 329.882812 200.207031 C 330.019531 200.34375 330.074219 200.535156 330.011719 200.640625 C 329.933594 200.765625 329.976562 200.796875 330.148438 200.730469 C 330.300781 200.671875 330.441406 200.738281 330.5 200.894531 C 330.644531 201.269531 329.976562 201.902344 329.433594 201.902344 C 329.085938 201.902344 328.980469 201.980469 328.980469 202.222656 C 328.980469 202.402344 328.890625 202.546875 328.777344 202.550781 C 328.671875 202.550781 328.4375 202.664062 328.257812 202.796875 C 327.984375 203.003906 327.964844 203.078125 328.15625 203.382812 C 328.359375 203.703125 328.324219 203.773438 327.773438 204.265625 C 327.445312 204.554688 327.078125 204.800781 326.957031 204.800781 C 326.5625 204.800781 325.601562 205.339844 325.601562 205.554688 C 325.601562 205.671875 325.679688 205.761719 325.78125 205.761719 C 325.882812 205.761719 325.777344 205.917969 325.542969 206.101562 C 325.113281 206.4375 325.101562 206.726562 325.519531 206.726562 C 325.640625 206.726562 325.824219 206.460938 325.929688 206.125 C 326.039062 205.796875 326.175781 205.464844 326.234375 205.398438 C 326.414062 205.207031 327.207031 205.09375 327.207031 205.261719 C 327.207031 205.480469 328.550781 205.148438 328.757812 204.871094 C 329.074219 204.453125 329.339844 204.59375 329.21875 205.125 C 329.140625 205.492188 329.171875 205.605469 329.363281 205.605469 C 329.492188 205.605469 329.648438 205.535156 329.695312 205.453125 C 329.75 205.367188 329.933594 205.332031 330.109375 205.363281 C 330.394531 205.414062 330.460938 205.34375 330.414062 205.015625 C 330.40625 204.960938 330.488281 204.859375 330.597656 204.796875 C 330.703125 204.730469 330.742188 204.59375 330.679688 204.492188 C 330.617188 204.394531 330.488281 204.359375 330.394531 204.417969 C 330.28125 204.484375 330.261719 204.449219 330.339844 204.328125 C 330.414062 204.214844 330.601562 204.164062 330.769531 204.203125 C 330.9375 204.253906 331.074219 204.222656 331.074219 204.144531 C 331.074219 204.066406 331.164062 204.039062 331.273438 204.078125 C 331.386719 204.121094 331.574219 204.085938 331.707031 204.007812 C 331.898438 203.882812 331.902344 203.816406 331.71875 203.597656 C 331.558594 203.398438 331.550781 203.292969 331.6875 203.148438 C 331.832031 203.011719 331.875 203.035156 331.875 203.242188 C 331.875 203.613281 332.296875 203.761719 332.613281 203.5 C 332.824219 203.328125 332.894531 203.332031 333.015625 203.523438 C 333.203125 203.828125 333.199219 203.996094 333.003906 203.996094 C 332.914062 203.996094 332.839844 204.0625 332.839844 204.144531 C 332.839844 204.359375 333.785156 204.203125 334.230469 203.917969 C 334.734375 203.582031 334.757812 203.929688 334.273438 204.539062 C 334.011719 204.878906 333.976562 205.015625 334.128906 205.199219 C 334.386719 205.511719 334.230469 205.703125 333.632812 205.820312 C 333.1875 205.910156 333.140625 205.976562 333.230469 206.328125 C 333.394531 206.996094 332.929688 207.335938 331.855469 207.335938 C 331.355469 207.335938 330.882812 207.367188 330.804688 207.414062 C 330.65625 207.5 330.25 207.46875 329.1875 207.289062 C 328.5625 207.183594 328.496094 207.207031 328.316406 207.59375 C 328.210938 207.828125 328.007812 208.023438 327.871094 208.027344 C 327.726562 208.035156 327.46875 208.078125 327.292969 208.125 C 327.113281 208.167969 326.808594 208.195312 326.613281 208.191406 C 326.347656 208.183594 326.28125 208.25 326.359375 208.445312 C 326.425781 208.621094 326.398438 208.671875 326.28125 208.601562 C 326.1875 208.542969 326.050781 208.585938 325.984375 208.6875 C 325.824219 208.953125 325.789062 209.789062 325.941406 209.695312 C 326.015625 209.652344 326.289062 209.722656 326.550781 209.859375 C 326.820312 210 327.203125 210.082031 327.40625 210.046875 C 327.609375 210.015625 327.90625 210.101562 328.0625 210.242188 C 328.304688 210.457031 328.40625 210.464844 328.6875 210.289062 C 328.867188 210.175781 329.328125 210.050781 329.703125 210.015625 C 330.285156 209.957031 330.40625 210 330.476562 210.273438 C 330.597656 210.746094 330.992188 210.660156 331.460938 210.070312 C 331.761719 209.6875 331.875 209.621094 331.875 209.824219 C 331.875 210.152344 332.125 210.207031 332.269531 209.910156 C 332.320312 209.796875 332.332031 209.875 332.296875 210.070312 C 332.21875 210.492188 332.464844 210.566406 332.574219 210.148438 C 332.632812 209.914062 332.648438 209.921875 332.667969 210.1875 C 332.6875 210.457031 332.710938 210.46875 332.839844 210.273438 C 332.972656 210.0625 332.996094 210.070312 333.003906 210.316406 C 333.003906 210.535156 333.074219 210.570312 333.28125 210.46875 C 333.4375 210.390625 333.808594 210.375 334.105469 210.421875 L 334.648438 210.511719 L 334.339844 210.894531 C 334.140625 211.136719 333.863281 211.273438 333.558594 211.273438 C 333.292969 211.273438 332.984375 211.351562 332.859375 211.453125 C 332.472656 211.769531 329.945312 211.800781 329.945312 211.484375 C 329.945312 211.402344 329.863281 211.417969 329.761719 211.519531 C 329.65625 211.621094 329.375 211.664062 329.105469 211.609375 C 328.722656 211.53125 328.621094 211.574219 328.550781 211.859375 C 328.503906 212.046875 328.40625 212.199219 328.347656 212.199219 C 328.289062 212.199219 328.109375 212.460938 327.953125 212.792969 C 327.65625 213.410156 327.804688 213.847656 328.210938 213.542969 C 328.324219 213.460938 328.59375 213.394531 328.800781 213.398438 C 329.273438 213.410156 329.414062 213.953125 329.027344 214.253906 C 328.878906 214.359375 328.800781 214.492188 328.847656 214.535156 C 328.890625 214.582031 329.125 214.4375 329.367188 214.21875 C 329.605469 213.992188 329.90625 213.8125 330.035156 213.8125 C 330.160156 213.8125 330.269531 213.703125 330.269531 213.566406 C 330.269531 213.335938 330.449219 213.261719 330.871094 213.316406 C 330.980469 213.328125 331.074219 213.28125 331.074219 213.207031 C 331.074219 213.066406 331.820312 213.054688 331.957031 213.195312 C 332.003906 213.246094 331.933594 213.375 331.804688 213.484375 C 331.664062 213.597656 331.550781 213.777344 331.550781 213.878906 C 331.550781 213.976562 331.320312 214.15625 331.03125 214.269531 L 330.507812 214.480469 L 331.039062 214.671875 C 331.457031 214.824219 331.523438 214.902344 331.367188 215.058594 C 331.257812 215.171875 331.082031 215.261719 330.972656 215.261719 C 330.867188 215.261719 330.753906 215.339844 330.714844 215.433594 C 330.6875 215.53125 330.417969 215.625 330.125 215.644531 C 329.820312 215.667969 329.523438 215.796875 329.441406 215.953125 C 329.339844 216.125 329.082031 216.222656 328.710938 216.222656 C 328.269531 216.222656 328.164062 216.28125 328.234375 216.464844 C 328.304688 216.652344 328.191406 216.707031 327.722656 216.707031 C 327.386719 216.707031 327.046875 216.640625 326.964844 216.5625 C 326.738281 216.347656 325.425781 216.238281 325 216.402344 C 324.570312 216.5625 324.523438 216.992188 324.898438 217.265625 C 325.203125 217.488281 325.066406 217.832031 324.679688 217.832031 C 324.445312 217.832031 324.433594 218.3125 324.535156 222.78125 C 324.605469 226.109375 324.625 227.367188 324.875 227.847656 Z M 321.671875 220.269531 C 321.515625 220.011719 320.777344 219.953125 320.777344 220.191406 C 320.777344 220.328125 320.960938 220.410156 321.265625 220.410156 C 321.539062 220.410156 321.71875 220.34375 321.671875 220.269531 Z M 319.324219 219.445312 C 319.324219 219.355469 319.183594 219.285156 319.003906 219.285156 C 318.824219 219.285156 318.679688 219.355469 318.679688 219.445312 C 318.679688 219.535156 318.824219 219.605469 319.003906 219.605469 C 319.183594 219.605469 319.324219 219.535156 319.324219 219.445312 Z M 321.695312 219.503906 C 321.640625 219.449219 321.503906 219.449219 321.382812 219.492188 C 321.257812 219.546875 321.292969 219.582031 321.484375 219.59375 C 321.652344 219.597656 321.75 219.558594 321.695312 219.503906 Z M 323.214844 217.3125 C 323.023438 217.128906 322.058594 217.308594 322.058594 217.535156 C 322.058594 217.617188 322.136719 217.648438 322.21875 217.59375 C 322.308594 217.535156 322.378906 217.582031 322.378906 217.691406 C 322.378906 217.796875 322.429688 217.839844 322.480469 217.785156 C 322.542969 217.730469 322.738281 217.792969 322.929688 217.921875 C 323.238281 218.148438 323.269531 218.136719 323.324219 217.820312 C 323.351562 217.628906 323.304688 217.402344 323.214844 217.3125 Z M 320.292969 217.433594 C 320.292969 217.296875 320.183594 217.1875 320.054688 217.1875 C 319.910156 217.1875 319.855469 217.285156 319.910156 217.433594 C 319.964844 217.566406 320.066406 217.671875 320.148438 217.671875 C 320.226562 217.671875 320.292969 217.566406 320.292969 217.433594 Z M 320.9375 217.578125 C 320.9375 217.4375 320.621094 217.367188 320.546875 217.480469 C 320.5 217.558594 320.574219 217.617188 320.699219 217.617188 C 320.828125 217.617188 320.9375 217.601562 320.9375 217.578125 Z M 321.574219 217.613281 C 321.574219 217.578125 321.46875 217.503906 321.332031 217.453125 C 321.1875 217.398438 321.121094 217.421875 321.175781 217.511719 C 321.269531 217.667969 321.574219 217.738281 321.574219 217.613281 Z M 323.269531 216.867188 C 323.324219 216.777344 323.289062 216.707031 323.199219 216.707031 C 323.101562 216.707031 323.023438 216.777344 323.023438 216.867188 C 323.023438 216.957031 323.0625 217.027344 323.097656 217.027344 C 323.136719 217.027344 323.210938 216.957031 323.269531 216.867188 Z M 318.441406 216.382812 C 318.496094 216.300781 318.464844 216.222656 318.375 216.222656 C 318.289062 216.222656 318.175781 216.300781 318.121094 216.382812 C 318.066406 216.472656 318.089844 216.542969 318.179688 216.542969 C 318.269531 216.542969 318.382812 216.472656 318.441406 216.382812 Z M 321.175781 216.382812 C 321.121094 216.300781 321.003906 216.222656 320.914062 216.222656 C 320.828125 216.222656 320.800781 216.300781 320.851562 216.382812 C 320.90625 216.472656 321.027344 216.542969 321.117188 216.542969 C 321.207031 216.542969 321.230469 216.472656 321.175781 216.382812 Z M 325.597656 215 C 325.601562 215.179688 326.085938 214.785156 326.085938 214.597656 C 326.085938 214.523438 325.902344 214.546875 325.679688 214.648438 C 325.460938 214.75 325.28125 214.945312 325.28125 215.082031 C 325.285156 215.308594 325.304688 215.308594 325.441406 215.101562 C 325.523438 214.964844 325.597656 214.921875 325.597656 215 Z M 320.613281 214.9375 C 320.613281 214.851562 320.578125 214.777344 320.542969 214.777344 C 320.5 214.777344 320.421875 214.851562 320.371094 214.9375 C 320.316406 215.023438 320.347656 215.101562 320.441406 215.101562 C 320.535156 215.101562 320.613281 215.023438 320.613281 214.9375 Z M 324.996094 213.53125 C 324.625 213.246094 324.476562 213.28125 324.476562 213.648438 C 324.476562 213.839844 324.589844 213.976562 324.753906 213.992188 C 325.023438 214.007812 325.023438 214.015625 324.753906 214.078125 C 324.566406 214.132812 324.476562 214.320312 324.476562 214.664062 L 324.476562 215.171875 L 324.867188 214.449219 C 325.222656 213.792969 325.234375 213.710938 324.996094 213.53125 Z M 325.121094 212.445312 C 325.226562 212.308594 325.273438 212.195312 325.222656 212.183594 C 324.839844 212.105469 324.691406 212.117188 324.515625 212.246094 C 324.410156 212.332031 324.355469 212.460938 324.402344 212.539062 C 324.539062 212.761719 324.894531 212.714844 325.121094 212.445312 Z M 323.460938 211.503906 C 323.371094 211.273438 322.378906 211.160156 322.378906 211.382812 C 322.378906 211.460938 322.621094 211.730469 322.90625 211.972656 C 323.425781 212.410156 323.429688 212.410156 323.484375 212.050781 C 323.507812 211.855469 323.503906 211.609375 323.460938 211.503906 Z M 324.929688 211.539062 C 324.625 211.351562 325.539062 210.863281 325.867188 211.042969 C 326.050781 211.148438 326.269531 211.144531 326.515625 211.03125 C 326.914062 210.851562 327.011719 210.601562 326.6875 210.578125 C 326.574219 210.570312 326.15625 210.535156 325.753906 210.492188 C 324.910156 210.417969 324.3125 210.816406 324.3125 211.453125 C 324.3125 211.957031 324.453125 212.058594 324.808594 211.835938 C 325 211.71875 325.042969 211.609375 324.929688 211.539062 Z M 326.246094 211.554688 C 326.246094 211.464844 326.210938 211.394531 326.175781 211.394531 C 326.132812 211.394531 326.054688 211.464844 326.003906 211.554688 C 325.949219 211.644531 325.980469 211.71875 326.074219 211.71875 C 326.167969 211.71875 326.246094 211.644531 326.246094 211.554688 Z M 326.976562 211.429688 C 326.921875 211.375 326.796875 211.429688 326.683594 211.539062 C 326.527344 211.699219 326.546875 211.71875 326.773438 211.628906 C 326.933594 211.566406 327.023438 211.476562 326.976562 211.429688 Z M 325.339844 209.699219 C 325.621094 209.417969 325.507812 208.925781 325.183594 209.042969 C 325.066406 209.089844 325.007812 209.042969 325.046875 208.9375 C 325.089844 208.816406 324.957031 208.734375 324.707031 208.714844 C 324.402344 208.699219 324.3125 208.757812 324.386719 208.929688 C 324.433594 209.0625 324.476562 209.347656 324.476562 209.558594 C 324.476562 210.015625 324.953125 210.09375 325.339844 209.699219 Z M 324.894531 208.21875 C 325.191406 207.828125 325.167969 207.695312 324.804688 207.695312 C 324.433594 207.695312 324.25 207.941406 324.375 208.269531 C 324.492188 208.574219 324.636719 208.558594 324.894531 208.21875 Z M 333.085938 206.566406 C 333.03125 206.476562 332.882812 206.40625 332.75 206.40625 C 332.625 206.40625 332.519531 206.476562 332.519531 206.566406 C 332.519531 206.65625 332.667969 206.726562 332.851562 206.726562 C 333.03125 206.726562 333.140625 206.65625 333.085938 206.566406 Z M 322.601562 206.167969 C 322.554688 206.035156 322.480469 205.921875 322.445312 205.921875 C 322.410156 205.921875 322.378906 206.035156 322.378906 206.167969 C 322.378906 206.296875 322.453125 206.40625 322.535156 206.40625 C 322.625 206.40625 322.65625 206.296875 322.601562 206.167969 Z M 332.441406 205.125 C 332.496094 205.035156 332.429688 204.960938 332.285156 204.960938 C 332.148438 204.960938 332.035156 205.035156 332.035156 205.125 C 332.035156 205.207031 332.105469 205.285156 332.191406 205.285156 C 332.273438 205.285156 332.386719 205.207031 332.441406 205.125 Z M 322.542969 204.253906 C 322.542969 204.214844 322.433594 204.152344 322.304688 204.097656 C 322.171875 204.042969 322.058594 204.074219 322.058594 204.164062 C 322.058594 204.246094 322.171875 204.316406 322.304688 204.316406 C 322.433594 204.316406 322.542969 204.289062 322.542969 204.253906 Z M 325.667969 202.117188 C 325.714844 202.003906 325.65625 201.816406 325.542969 201.703125 C 325.429688 201.589844 325.363281 201.410156 325.394531 201.308594 C 325.429688 201.207031 325.386719 201.082031 325.296875 201.03125 C 325.210938 200.976562 325.148438 201.058594 325.15625 201.214844 C 325.167969 201.371094 325.132812 201.6875 325.070312 201.90625 C 324.988281 202.242188 325.023438 202.320312 325.28125 202.320312 C 325.453125 202.320312 325.625 202.222656 325.667969 202.117188 Z M 323.566406 200.003906 C 323.710938 199.777344 323.429688 199.496094 323.203125 199.640625 C 323.085938 199.710938 323.035156 199.855469 323.097656 199.957031 C 323.222656 200.164062 323.453125 200.1875 323.566406 200.003906 Z M 322.542969 197.902344 C 322.542969 197.832031 322.34375 197.683594 322.101562 197.582031 L 321.660156 197.390625 L 322.039062 197.71875 C 322.457031 198.074219 322.542969 198.105469 322.542969 197.902344 Z M 323.574219 194.601562 C 323.519531 194.460938 323.40625 194.339844 323.324219 194.339844 C 323.238281 194.339844 323.210938 194.269531 323.265625 194.1875 C 323.351562 194.035156 322.75 193.375 322.523438 193.375 C 322.136719 193.375 322.285156 193.78125 322.882812 194.339844 C 323.59375 194.996094 323.753906 195.058594 323.574219 194.601562 Z M 323.832031 193.617188 C 323.832031 193.59375 323.734375 193.5 323.621094 193.402344 C 323.464844 193.273438 323.417969 193.300781 323.417969 193.523438 C 323.417969 193.695312 323.503906 193.785156 323.621094 193.738281 C 323.734375 193.695312 323.832031 193.640625 323.832031 193.617188 Z M 325.195312 188.707031 C 325.25 188.617188 325.222656 188.546875 325.125 188.546875 C 325.035156 188.546875 324.957031 188.617188 324.957031 188.707031 C 324.957031 188.796875 324.988281 188.867188 325.03125 188.867188 C 325.066406 188.867188 325.144531 188.796875 325.195312 188.707031 Z M 325.441406 200.414062 C 325.441406 200.140625 325.464844 200.136719 325.679688 200.347656 C 325.8125 200.480469 325.925781 200.625 325.925781 200.660156 C 325.925781 200.695312 325.8125 200.71875 325.679688 200.71875 C 325.550781 200.71875 325.441406 200.582031 325.441406 200.414062 Z M 325.441406 200.414062 " fill-opacity="1" fill-rule="evenodd"/></g></svg>